<?xml version="1.0" encoding="utf-8"?>
<!-- Generator: Adobe Illustrator 19.1.0, SVG Export Plug-In . SVG Version: 6.00 Build 0)  -->
<svg version="1.1" id="Layer_1" xmlns="http://www.w3.org/2000/svg" xmlns:xlink="http://www.w3.org/1999/xlink" x="0px" y="0px"
	 viewBox="0 0 509.1 165.3" style="enable-background:new 0 0 509.1 165.3;" xml:space="preserve">
<style type="text/css">
	.st0{fill:#FFD99D;}
	.st1{fill:#802919;}
	.st2{fill:#FFF3E5;}
	.st3{fill:#FFFFFF;}
	.st4{fill:#817257;}
	.st5{fill:#74BDE9;}
	.st6{fill:#857D5D;}
	.st7{fill:#C9976D;}
	.st8{fill-rule:evenodd;clip-rule:evenodd;fill:#7A0200;}
	.st9{fill:#7A0200;}
</style>
<g>
	<g>
		<path class="st0" d="M164.7,82.6c0-45.2-36.6-81.8-81.8-81.8C37.7,0.8,1.1,37.4,1.1,82.6c0,45.2,36.6,81.8,81.8,81.8
			C128.1,164.4,164.7,127.8,164.7,82.6"/>
		<path class="st1" d="M82.9,165.3c-45.6,0-82.6-37.1-82.6-82.6C0.2,37.1,37.3,0,82.9,0c45.6,0,82.6,37.1,82.6,82.6
			C165.5,128.2,128.4,165.3,82.9,165.3 M82.9,1.6c-44.7,0-81,36.3-81,81c0,44.7,36.3,81,81,81c44.7,0,81-36.3,81-81
			C163.9,38,127.5,1.6,82.9,1.6"/>
		<path class="st2" d="M134,82.5c0,28.4-23,51.3-51.3,51.3c-28.4,0-51.3-23-51.3-51.3c0-28.4,23-51.4,51.3-51.4
			C111,31.1,134,54.1,134,82.5"/>
		<polygon class="st0" points="122.3,88.4 122.3,68.7 121.5,68.7 121.5,57.3 119.8,57.3 119.8,56.6 120.3,56.6 120.3,54.8 
			110.5,54.8 109,56.7 109,61.9 108.7,62 108.7,69 108.4,69.2 108.4,70.3 103.8,70.3 103.8,65.6 62,65.6 62,70.3 57.5,70.3 
			57.5,69.2 57.1,69 57.1,62 56.9,61.9 56.9,56.7 55.3,54.8 45.5,54.8 45.5,56.6 46,56.6 46,57.3 44.4,57.3 44.4,68.7 43.5,68.7 
			43.5,88.2 28.2,98.2 82.6,121.4 82.8,121.5 82.9,121.4 137.3,98.2 		"/>
		<polygon class="st3" points="128.7,32.5 128.7,32.5 128.7,32.5 		"/>
		<polygon class="st4" points="96.1,69 96.5,69 96.5,67.7 95.2,67.7 95.2,68.1 96.1,68.1 		"/>
		<polygon class="st4" points="99,68.1 100.8,68.1 100.8,69.9 101.2,70.2 101.2,67.7 98.6,67.7 		"/>
		<polygon class="st4" points="69.7,68.1 70.6,68.1 70.6,67.7 69.4,67.7 69.4,69 69.7,69 		"/>
		<polygon class="st4" points="93,69 93.3,69 93.3,67.7 92.1,67.7 92.1,68.1 93,68.1 		"/>
		<polygon class="st4" points="64.7,70.2 65,69.9 65,68.1 66.8,68.1 67.2,67.7 64.7,67.7 		"/>
		<polygon class="st4" points="76,68.1 76.9,68.1 76.9,67.7 75.6,67.7 75.6,69 76,69 		"/>
		<polygon class="st4" points="72.9,68.1 73.8,68.1 73.8,67.7 72.5,67.7 72.5,69 72.9,69 		"/>
		<polygon class="st4" points="89.8,69 90.2,69 90.2,67.7 89,67.7 89,68.1 89.8,68.1 		"/>
		<polygon class="st4" points="79.1,68.1 80,68.1 80,67.7 78.8,67.7 78.8,69 79.1,69 		"/>
		<polygon class="st4" points="86.7,69 87.1,69 87.1,67.7 85.8,67.7 85.8,68.1 86.7,68.1 		"/>
		<polygon class="st4" points="113.8,61.8 113.8,62.4 117.8,62.4 117.8,68.9 118.4,68.9 118.4,61.8 		"/>
		<polygon class="st4" points="110,56.1 110,58.2 110.6,57.8 111.7,57.8 111.7,56.1 110.3,56.1 		"/>
		<rect x="109.8" y="62.1" class="st4" width="0.4" height="6.7"/>
		<rect x="55.7" y="62.1" class="st4" width="0.4" height="6.7"/>
		<polygon class="st4" points="55.8,56.1 55.5,56.1 54.2,56.1 54.2,57.8 55.2,57.8 55.8,58.2 		"/>
		<polygon class="st4" points="47.4,68.9 48,68.9 48,62.4 52.1,62.4 52.1,61.8 47.4,61.8 		"/>
		<rect x="56.4" y="70.7" class="st4" width="0.5" height="17.8"/>
		<rect x="109" y="70.7" class="st4" width="0.5" height="17.8"/>
		<path class="st4" d="M83.1,71.9c-5.3,0-10.3,2.4-13.6,6.6l0,0.1v19.9h27.3V78.6l-0.1-0.1C93.4,74.3,88.5,71.9,83.1,71.9 M96.3,98
			H70V78.7c3.2-4,8-6.3,13.1-6.3c5.2,0,10,2.3,13.2,6.4V98z"/>
		<path class="st5" d="M82.5,70.1h0.9v-4.5h14.9c-1.9-6.7-8.1-11.5-15.1-11.5c-7,0-13.2,4.8-15.1,11.5h14.5V70.1z"/>
		<path class="st5" d="M91.9,78.7c-9.5-6.6-17.8,0-17.8,0h-4.4l3.9,0.9v18.7l19,0l0.1-18.7l3.8-0.9h-4.4H91.9z"/>
		<line class="st6" x1="108.7" y1="95.9" x2="108.5" y2="95.7"/>
		<path class="st7" d="M137.4,98.4L137.4,98.4c0.1,0,0.1-0.1,0.1-0.2c0-0.1,0-0.2-0.1-0.2l-18.3-11.9c-0.1,0-0.1,0-0.2,0l-2.4,0.7
			c-0.1,0-0.2,0.1-0.1,0.3c0,0.1,0.1,0.2,0.3,0.1l2.3-0.6l17.8,11.6l-54.1,23.1L28.6,98.2l17.9-11.6l2.3,0.6c0.1,0,0.2,0,0.3-0.1
			c0-0.1,0-0.2-0.1-0.3l-2.4-0.7c-0.1,0-0.1,0-0.2,0L28.1,98c-0.1,0-0.1,0.1-0.1,0.2c0,0.1,0.1,0.1,0.1,0.2l0,0l-0.8,2.3l51.6,22
			v1.5h7.7v-1.5l51.6-22L137.4,98.4z"/>
		<path class="st3" d="M82.8,97.7c0,0,3.1-4.8,9.6-6.2c6.6-1.3,19.9-2.4,21.9-6.3l15.5,11.4c0,0-3.9,3.8-10.1,5.6
			c-6.2,1.8-29.2,3.3-36.9,15.4V97.7z"/>
		<path class="st3" d="M82.7,97.7c0,0-3.1-4.8-9.6-6.2c-6.6-1.3-19.9-2.4-21.9-6.3L35.8,96.6c0,0,3.9,3.8,10.1,5.6
			c6.2,1.8,29.2,3.3,36.9,15.4V97.7z"/>
		<path class="st4" d="M90,97.4c0.9-0.5,2-1,3.3-1.2c0.2,0,0.6-0.1,1.2-0.2c3.3-0.6,11.9-2.1,16.9-3.6l-0.2-0.2
			c-5,1.5-13.5,3-16.8,3.5c-0.6,0.1-1.1,0.2-1.2,0.2c-1.3,0.3-2.4,0.7-3.3,1.2L90,97.4z"/>
		<path class="st4" d="M112.8,96.7c1-0.2,1.9-0.4,2.8-0.5l-0.2-0.2c-0.8,0.2-1.7,0.3-2.6,0.5l0,0c-5.8,1.1-14.5,2.7-22.1,6.2l0,0.3
			C98.3,99.4,107,97.8,112.8,96.7L112.8,96.7z"/>
		<path class="st4" d="M113.2,99c1.8-0.3,3.4-0.6,4.5-0.9l-0.2-0.2c-1.1,0.3-2.7,0.5-4.4,0.8c-6.1,1.1-14.8,2.7-22.2,6.3l0,0.3
			C98.4,101.7,107.1,100.1,113.2,99"/>
		<path class="st4" d="M95.5,97.8l-0.7,0.1c-1.5,0.3-3.4,1.1-4.5,1.8l0,0.3c1.1-0.7,3-1.5,4.6-1.8l0.7-0.1
			c9.2-1.8,15.2-3.1,17.9-3.9l-0.2-0.2C110.5,94.8,104.5,96,95.5,97.8"/>
		<path class="st4" d="M70.6,98.2c1.5,0.3,3.5,1.2,4.6,1.8l0-0.3c-1.1-0.7-3-1.5-4.5-1.8c-0.1,0-0.4-0.1-0.8-0.1
			C61,96,55.1,94.8,52.3,94L52,94.2c2.7,0.8,8.7,2.1,17.8,3.8C70.3,98.1,70.5,98.2,70.6,98.2"/>
		<path class="st4" d="M54,92.4c5,1.5,13.6,3,16.9,3.6c0.6,0.1,1.1,0.2,1.2,0.2c1.3,0.3,2.4,0.7,3.3,1.2l0-0.3c-0.9-0.5-2-1-3.3-1.2
			c-0.2,0-0.6-0.1-1.2-0.2c-3.3-0.6-11.7-2.1-16.8-3.5L54,92.4z"/>
		<path class="st4" d="M52.7,96.7L52.7,96.7c5.9,1.1,14.6,2.7,22.2,6.2l0-0.3c-7.6-3.5-16.3-5.1-22.1-6.2l0,0
			c-0.9-0.2-1.8-0.3-2.6-0.5l-0.2,0.2C50.7,96.3,51.7,96.5,52.7,96.7"/>
		<path class="st4" d="M52.3,99c6.1,1.1,14.8,2.7,22.3,6.3l0-0.3c-7.5-3.6-16.2-5.2-22.2-6.3c-1.7-0.3-3.3-0.6-4.4-0.8l-0.2,0.2
			C48.9,98.4,50.5,98.7,52.3,99"/>
		<path class="st7" d="M82.7,117.7c-0.1,0-0.1-0.1-0.1-0.1V97.7c0-0.1,0.1-0.1,0.1-0.1c0.1,0,0.1,0.1,0.1,0.1v19.9
			C82.9,117.7,82.8,117.7,82.7,117.7"/>
		<path class="st8" d="M88.3,11.2c-1,0.2-0.5-1-1.3-0.9c0.3,6.1,0.5,13.4-3.2,16.1c0.4-2.1,1.7-3.5,2-5.8c0.4-2.9-0.5-6.1-0.3-9
			c0-0.5,0.2-1.1,0.2-1.6c0-0.5-0.3-1.2-0.2-1.7c0.1-1,1-1.8,1.4-2.5c0.2,0,0.4,0,0.5,0.2C87.3,8,88.4,9,88.3,11.2"/>
		<path class="st8" d="M102.6,8.2c0.1,0.7-0.6,0.7-0.8,1.2c-0.4,0-7.6,1.9-10.6,3.3c-0.3,0.2-0.6,0.8-1.1,0.4c0-1.7,2.2-2,4.1-2.7
			C96.9,9.4,99.6,8.5,102.6,8.2"/>
		<path class="st8" d="M63,8.6c1.2,1,2.3,2.9,2.7,4.1c0,0.7-0.6-0.1-0.8,0.3c2,4.6,5.3,8.7,4.2,15.8c-0.3-1.2-0.5-3.5-1-5.1
			c-1.3-3.6-3.6-6.9-4.8-10.8C61.8,12,62.2,10.1,63,8.6"/>
		<path class="st8" d="M54.6,12c0.2,0,0.3,0.2,0.4,0.2c0.6,0.8,1.3,1.4,1.9,2.2c0.6,0.7,1.4,1.4,1.7,2.3C58,17,57.5,16.1,56.9,16
			c0.8,3.1,3.1,5.5,2.6,9.4c2.8-0.4,5.1-1.3,7.6-2c-0.3,0.8,0.2,2-0.2,2.8c-3.1,0.2-5.4,3.3-7.4,5.3c-0.3,0.4-0.8,0.6-1.1,1
			c-0.9,1-2.4,2.8-4.1,2.9c-2,0.1-2.6-1.4-3.4-2.8c-3,3.1-5.8,6.5-8.6,10c-2.8,3.4-5,7.2-7.8,10.6c-0.8,1-1.6,1.6-2.8,2
			c0.2,1.3,1.7,1.4,1.6,2.8c-0.3,2.6-5-0.1-5.8-1.4c0.1,1.6,1.6,2.8,1.4,4.7c-0.4,2.6-3.1,3-5.8,3.4c-1.2,0.2,0.5,2.8,1.2,4.1
			c0.8,1.3,1.9,1.6,2.5,3.2c1.9,4.9-5.3,3.1-7.6,2c-1.4-0.6-2.5-1.6-2.9-2.3c2.3,0.7,5.2,2.8,8.1,1.6c2.4-1.3-2.8-5-3.7-7.9
			c-0.4-1.2,0-3.6,1-3.1c2.6,0.8,4.8-0.8,5-2.9c0.2-2-1.5-3.6-1.5-5.5c4.3-0.2,7.3-1.9,9.2-4.7c0.4-0.5,4.6-6.2,6.5-8.5
			c0.3-0.4,0.6-0.8,0.9-1.2c0.8-1.1,1.7-2.2,2.7-3.4c0.1-0.1,0.4-0.5,0.5-0.6c0.4-0.4,0.9-1,1.4-1.6c1.2-1.5,2.7-2.8,3.6-4.6
			c-2.8-1.7-5,1.3-6.7,3.1c-2.8,2.9-5.3,5.8-7.8,8.8c-1.3,1.5-2.4,3.2-3.7,4.4c-0.9,0.9-2.5,1.7-4.1,1.8c-1.7-2.8-0.8-8.6,0.2-12
			c0.5-1.7,1.3-3.4,2.4-4c0.9,0.3,1,1.3,0.8,2.6c0.1,0.5-0.5,0.2-0.8,0.3c-1.6,2.7-2.3,6.3-2.9,10c2.5,0.3,4.1-1.4,5.4-3.3
			c1.9-3,4.3-5.2,7.2-8.3c1.1-1.2,2.2-2.7,3.7-4.1c1.1-1,4.1-3.4,5.9-2.1c1.4,1,0.9,4.6,2.5,5.8c0.4,0.3,1.5,0.6,2.2,0.4
			c2.3-0.8,4.3-3.1,5.6-4.8c-2.3,0.7-5.3,0.7-7.3,1.7c-0.3-4.2,3.7-3.9,5.7-5.7c-0.2-1.2-1.2-2.5-1.8-4c-0.6-1.3-1.1-2.9-1.7-4
			c-0.3-0.5-0.9-1-1-1.5C53.7,13.7,54.3,12.8,54.6,12 M28.3,55.9c0.9,0.1,1.7,1.2,2.8,0.5C31,55.1,28.9,55.4,28.3,55.9"/>
		<path class="st8" d="M97.7,17.3c-0.5,0.1-0.7-0.2-1-0.3c0.9,1.6,3.4,3,3.4,5.8c0,0.8-0.1,1.3-0.4,2.2c-1.5,0.9-9.3,3.1-10.3,3.2
			c-5.5,0.4-1.3-6.8-0.1-8.4c0.2,1.6-2.1,5.4-0.8,5.5c3.7,0.3,7-1.2,10.3-1.9c-0.4-1.6-2-2.3-2.9-3.4c-0.7-0.9-0.8-1-1.5-2
			c-0.4-0.6-0.8-2.3-0.4-2.9c0.3-0.6,0.8-1.1,1.1-1.8c0.1,0,0.3,0,0.5,0C96.1,14.8,97.3,15.7,97.7,17.3"/>
		<path class="st8" d="M84.5,15.6c0.2,1-0.1,2.2-0.5,3c-0.8,0.2-0.7-0.4-1.2-0.5c-2.1,0.6-3.1,2.7-4.2,4.8c-0.5,0.9-1.1,1.8-1.7,2.8
			c-1,1.4-1.5,3.4-3.8,3c-1.6-0.2-1.7-1.4-1.9-3.5c-0.1-1.8-0.1-4.9,1.2-6.1c-1.6,2.6-0.3,9.5,2.8,6.4C78,22.7,78.6,14.9,84.5,15.6"
			/>
		<path class="st8" d="M35.9,26.4c0.3-0.1,1.3-0.2,2,0.1c1.2,1.1,0.9,3.9-0.9,3.6C35.7,29.8,36,28,35.9,26.4 M36.1,27.8
			c0,1.3,1.9,1.4,1.8-0.1C37.3,27.5,36.3,27.4,36.1,27.8"/>
		<path class="st8" d="M66,28.6c0.2,0.1,0.3,0.2,0.4,0.4c-0.5,1.8-4.7,4.7-5.8,5.4c-0.7-1.5,1.2-2.2,2.1-2.9
			C63.8,30.6,65.9,28.8,66,28.6"/>
		<path class="st8" d="M20.3,41.3c0.2,0,0.3,0.1,0.4,0.2c0.3,2.2-0.3,4.8-0.8,7.5c-0.6,3.2-1.1,6.2-1.5,9.7c-1.5-0.6-1-2.5-0.8-3.9
			c0.6-4.2,1.5-9.3,2.5-13C20,41.5,20.2,41.5,20.3,41.3"/>
		<path class="st8" d="M16.6,61.3c0.8,0.3,0.7,1.5,0.8,2.4c-0.6,0.6-1.5,0.8-2.1,1.3c1.1,2.2-0.8,2.9-2.5,3.4
			c-0.3-0.9-0.9-1.4-0.8-2.7c0.9-0.2,1.4-0.7,2.3-1c-0.1-0.7-0.4-1.2-0.4-2C14.7,62.1,15.5,61.5,16.6,61.3"/>
		<path class="st8" d="M81.8,25.3c0.2,0.1,0.3,0.3,0.3,0.4c-0.8,1.5-3.6,2.7-4.7,3.3c-0.7-0.8,1.2-2,2.3-2.5
			C81,25.8,81.7,25.4,81.8,25.3"/>
		<path class="st8" d="M152.3,46.1c-0.2,0.1-0.4,0.2-0.7,0.3c-3.2,1.2-6.3,2.3-9.5,3.5c-0.6,0.2-1.2,0.4-1.7,0.7
			c-1.5,0.6-2.1,1.9-2.4,3.4c-0.3,1.5,0,3.1,0.4,4.5c0.7,2.7,1.8,5.2,3.1,7.6c0.1,0.1,0.2,0.3,0.3,0.5c0.3-1.1,0.7-2,0.8-3
			c0.3-1.7-0.1-4.4-0.4-5c1.1,0.1,2,0.5,2.6,1.3c0.6,0.7,0.7,3.4,0.4,4.5c-0.5,2-1,3.9-1.3,5.9c-0.2,1.3,0,2.7,0,4
			c0,0.2,0,0.4,0,0.7c-1-0.3-1.7-0.9-2.5-1.5c-0.1-0.1-0.1-0.3-0.1-0.5c0.1-1.8-0.3-3.5-1.3-5.1c-1.7-2.7-3.1-5.6-4.1-8.6
			c-0.5-1.4-0.8-2.8-1-4.3c-0.1-1,0.1-2,0.4-3c0.3-1,1-1.6,2-2c2.2-0.8,4.4-1.6,6.6-2.4c1.7-0.6,3.4-1.3,5.1-1.9c1.1-0.4,2-0.3,3,0
			C152.3,46,152.3,46,152.3,46.1"/>
		<path class="st8" d="M156.9,69.6c-1.1-0.2-1.8-0.5-2.2-1.4c-1-2.2-2.2-4.2-3.4-6.3c-1.3-2.3-2.5-4.7-3.9-7
			c-0.7-1.1-1.6-2.1-2.3-3.1c0.8-0.1,1.7,0.2,2.3,1c1,1.4,2,2.8,2.8,4.2c1.8,3.2,3.4,6.4,5.1,9.6c0.3,0.6,0.7,1.3,1,1.9
			C156.6,68.8,156.7,69.1,156.9,69.6"/>
		<path class="st8" d="M116.8,25.3c0.9-1,1.9-0.7,2.8-0.5c2.6,0.5,5.1,1.4,7.6,2.4c2.9,1.1,5.7,2.3,8.6,3.4c1,0.4,1.9,1,2.9,1.5
			c0.2,0.1,0.3,0.3,0.7,0.5c-0.8,0.3-1.4,0.6-2.2,0.2c-2.5-1.4-5.1-2.5-7.8-3.5c-2.1-0.8-4.1-1.7-6.3-2.4c-1.8-0.6-3.6-1-5.4-1.4
			C117.5,25.5,117.2,25.4,116.8,25.3"/>
		<path class="st8" d="M108.5,16.8c0.5-0.8,1.2-1,1.9-1.2c0.1-0.1,0.5,0.2,0.6,0.4c0.3,0.3,0.5,0.7,0.7,1c0.3,0.5,0.6,0.6,1.1,0.3
			c0.8-0.4,0.9-0.3,1.4,0.4c0.2,0.3,0.3,0.5,0.5,0.8c0.4,0.7,0.4,0.8-0.3,1.2c-0.1,0.1-0.3,0.2-0.4,0.2c-1.2,0.6-1.2,0.6-1.8-0.5
			c-0.1-0.1-0.2-0.3-0.3-0.4c-0.2-0.5-0.5-0.6-1.1-0.4c-0.8,0.4-0.9,0.3-1.4-0.4C109.1,17.7,108.8,17.2,108.5,16.8"/>
		<path class="st8" d="M135.1,67.9c0.3-0.9,0.6-1.5,0.8-2.2c0.9-0.1,1.5,0.5,2.2,1c0.1,0.1,0.2,0.3,0.1,0.4
			c-0.2,0.6-0.3,1.2-0.6,1.7c-0.1,0.1-0.5,0.2-0.6,0.2C136.4,68.6,135.8,68.2,135.1,67.9"/>
		<path class="st9" d="M127.1,47.1c-0.6-0.4-1.2-0.3-2-0.2c0.2,0.2,0.3,0.3,0.4,0.3c1.5,1,3.1,1.9,4.6,2.9c0.5,0.3,1,0.3,1.7,0.1
			c-0.4-0.3-0.7-0.6-1-0.8C129.6,48.6,128.3,47.9,127.1,47.1"/>
		<path class="st9" d="M137.2,45.4c-0.9-0.4-1.9-0.7-2.9-0.9c-1.5-0.2-3-0.5-4.5-1c-1-0.4-1.8-1.8-1.7-2.9c1,0.1,1.8,0.6,2.6,1.1
			c0.4,0.3,0.8,0.3,1.2,0.1c0.3-0.1,0.6-0.2,0.9-0.4c0.7-0.4,0.8-0.6,0.6-1.3c-0.5-1.3-1-2.6-1.6-3.7c-1.1-1.9-2.9-3-4.7-4
			c-0.2-0.1-0.4-0.1-0.6-0.1c-0.8,0.2-1.6,0.4-2.1,1.2c1.6,0.9,1.4,2.5,1.5,4.1c-0.4-0.1-0.6-0.1-0.8-0.2c-2.5-1-5-2-7.3-3.4
			c-1.7-1.1-3.3-2.1-4.5-3.8c-1.1-1.6-1.8-3.3-1.5-5.3c0.2-1.1-0.4-1.6-1.5-1.3c-1.5,0.4-2.9,1.1-4,2.2c-0.6,0.6-1.2,1.2-2.1,1.5
			c-0.8,0.2-1.7,0-2-0.7c-0.2-0.6-0.3-1.3-0.1-1.9c0.3-1.3,0.9-2.4,1.4-3.7c0.1-0.3,0.4-0.6,0.3-1.2c-0.2,0.3-0.4,0.4-0.5,0.6
			c-0.4,0.6-0.7,1.1-1.1,1.7c-1,1.7-1.4,3.4-1.3,5.4c0.1,1.5,1.4,2.3,2.8,1.7c0.5-0.2,1-0.5,1.4-0.9c1-0.7,1.9-1.4,2.8-2.1
			c0.3-0.2,0.7-0.4,1.1-0.5c0.7-0.2,1.2,0,1.1,0.8c-0.1,0.8,0,1.6,0,2.3c0,1,0.5,1.9,1,2.7c1.2,1.9,3,3,4.9,4.1
			c2.8,1.6,5.7,2.6,8.7,3.7c0.8,0.3,0.8,0.3,0.7,1c-0.3,1.8,0.5,3.2,2.2,3.8c1.5,0.6,3,0.7,4.7,0.8c-0.7,0.4-0.8,1-0.7,1.6
			c0.1,0.8,0.3,1.5,0.5,2.3c0.5,1.7,0.6,1.8,2.4,1.8c0,0,0.1,0,0.1,0c0.5,0.1,0.8-0.1,1.1-0.5c0.6-0.8,1.2-1.5,1.9-2.2
			C138.4,47.1,138.3,45.8,137.2,45.4 M128.8,36.8c1,0.4,0.9,1.4,1.3,2.2c-0.5-0.1-0.9-0.2-1.4-0.3C128.6,38,128.7,37.4,128.8,36.8
			 M134.4,48.1c-0.1-0.9-0.1-1.7-0.2-2.5c0.5,0,0.9,0.2,1.1,0.6C135.5,46.9,135.3,47.3,134.4,48.1"/>
		<path class="st8" d="M111.6,10.3c0.4,1,0.1,1.7-0.5,2.4c0.4,0.4,0.8,0.8,1.1,1.4c0,0.4-0.6,0.5-0.7,0.8c-0.4-0.4-0.7-1-1.1-1.4
			c-1.2,0.8-3.4,2.2-5.2,2.6c-0.5,0.1-1.2,0.2-1.6-0.1c2.2-0.7,4.5-1.6,6.4-2.7c-0.1-0.5-0.5-0.4-0.6-0.9
			C109.7,11.2,110.4,10.7,111.6,10.3 M110.3,11.6c0.2,0.3,0.3,0.5,0.6,0.5c-0.1-0.3,0.1-0.5-0.2-0.8
			C110.5,11.4,110.4,11.5,110.3,11.6"/>
		<path class="st9" d="M24.5,100.2l1.2,3.4c1,2.7-0.7,3.9-3.7,5c-1.5,0.5-4.9,2-6.2-1.5l-1.2-3.4L24.5,100.2z M16.9,105.3l0.4,1
			c0.4,1.3,1.5,1.2,4,0.3c1.8-0.6,3.4-1.2,2.9-2.7l-0.4-1.1L16.9,105.3z"/>
		<path class="st9" d="M17.4,111.5l10.7-2.2l1.3,2.6l-8.1,7.3l-1-2.1l1.8-1.6l-1.4-2.7l-2.3,0.5L17.4,111.5z M26.9,111.4L26.9,111.4
			l-4.5,1.1l0.9,1.9L26.9,111.4z"/>
		<path class="st9" d="M23.6,122.5l-1.2-1.8l8.7-5.9l2.3,3.3c0.8,1.2,0.6,2.6-0.9,3.6c-1.1,0.7-2.2,0.9-3.2-0.2l0,0
			c0.2,0.4,0.9,1.7-0.6,2.7c-0.6,0.4-2.2,1.5-2.4,1.9l-1.2-1.8c0.4-0.6,1-1,1.5-1.3c1-0.7,2-1.2,1-2.6l-0.3-0.5L23.6,122.5z
			 M28.5,119.2L29,120c0.5,0.7,1.4,0.4,1.9,0.1c0.8-0.6,0.9-1.1,0.5-1.7l-0.5-0.8L28.5,119.2z"/>
		<path class="st9" d="M29.2,130.1l9.5-5.3l2,2.1l-5.5,9.4l-1.6-1.6l1.3-2l-2.1-2.1l-2.1,1.2L29.2,130.1z M38.2,127.2L38.2,127.2
			l-4,2.4l1.5,1.5L38.2,127.2z"/>
		<polygon class="st9" points="36.6,137.4 43.2,129.3 44.9,130.6 39.4,137.4 42,139.5 40.9,140.9 		"/>
		
			<rect x="44.8" y="137.5" transform="matrix(0.5593 -0.8289 0.8289 0.5593 -95.3681 99.1685)" class="st9" width="1.5" height="3.6"/>
		<polygon class="st9" points="53.9,141.4 55.9,137.8 57.8,138.8 52.9,148 50.9,147 53.1,142.9 50.9,141.7 48.7,145.8 46.8,144.8 
			51.7,135.5 53.6,136.6 51.7,140.3 		"/>
		<polygon class="st9" points="55.3,149.1 59.1,139.3 64.4,141.4 63.9,142.9 60.6,141.6 59.6,144 62.7,145.2 62.1,146.7 59.1,145.5 
			58,148.4 61.4,149.7 60.8,151.2 		"/>
		<polygon class="st9" points="69.9,142.9 72.3,143.4 68.3,147.3 69.7,153.6 67.3,153 66.2,147.2 66.2,147.2 64.8,152.4 62.7,151.8 
			65.3,141.7 67.4,142.2 66.3,146.6 66.3,146.6 		"/>
		<polygon class="st9" points="71.6,154 72.6,143.6 76.1,143.9 77.1,151.2 77.1,151.2 79.5,144.3 82.9,144.6 81.9,155 79.8,154.8 
			80.5,146.8 80.5,146.8 77.7,154.6 75.7,154.4 74.5,146.2 74.5,146.2 73.7,154.2 		"/>
		<path class="st9" d="M83.9,155l2.3-10.6l2.9-0.2l3.5,10.3l-2.3,0.1l-0.7-2.3l-3,0.2l-0.5,2.4L83.9,155z M87.6,146.3L87.6,146.3
			l-0.8,4.6l2.1-0.1L87.6,146.3z"/>
		<path class="st9" d="M102.2,141.7l1.8,7.2c0.4,1.5-0.1,3.3-2.7,4c-2.3,0.6-3.8-0.3-4.2-2.3l-1.8-7.2l2.1-0.5l1.8,7.1
			c0.3,1.2,1,1.6,1.7,1.4c0.9-0.2,1.2-1,0.9-2.1l-1.8-7.1L102.2,141.7z"/>
		<polygon class="st9" points="107.3,151 103.4,141.3 106.1,140.2 111.4,145.9 111.5,145.9 108.7,139.1 110.6,138.4 114.6,148.1 
			111.9,149.2 106.3,143.1 106.3,143.2 109.2,150.3 		"/>
		
			<rect x="110" y="140.6" transform="matrix(0.4728 0.8812 -0.8812 0.4728 185.6608 -26.8364)" class="st9" width="10.5" height="2.2"/>
		<polygon class="st9" points="114.4,136.4 116.3,135.1 121.8,140.6 121.8,140.6 119.2,133.2 121,132 124.4,142.3 122.3,143.7 		"/>
		<polygon class="st9" points="128.1,139.7 121.3,131.7 125.7,128 126.7,129.2 124,131.5 125.7,133.5 128.2,131.4 129.2,132.6 
			126.7,134.7 128.7,137 131.5,134.7 132.5,135.9 		"/>
		<path class="st9" d="M135.6,132.9l-1.5,1.6l-7.6-7.2l2.8-3c1-1.1,2.4-1.1,3.7,0.1c1,0.9,1.3,2,0.5,3.2l0,0c0.4-0.3,1.4-1.3,2.8,0
			c0.5,0.5,2,1.8,2.4,1.9l-1.5,1.6c-0.7-0.2-1.1-0.8-1.6-1.2c-0.9-0.9-1.6-1.7-2.8-0.4l-0.4,0.4L135.6,132.9z M131.2,128.8l0.7-0.7
			c0.6-0.6,0.1-1.4-0.4-1.9c-0.7-0.7-1.3-0.6-1.8-0.1l-0.7,0.7L131.2,128.8z"/>
		<path class="st9" d="M141.9,125.7c-1.6,2.2-3.2,1.7-4.6,0.5l1.3-1.8c0.8,0.6,1.5,1.1,2.2,0.1c0.4-0.6,0.3-1.2-0.3-1.6
			c-1.5-1.1-4.2,2.4-6.7,0.5c-1.3-1-1.9-2.4-0.3-4.5c1.3-1.7,2.7-2,4.3-0.6l-1.3,1.7c-0.6-0.5-1.4-0.8-1.9-0.1
			c-0.4,0.6-0.3,1.1,0.2,1.6c1.6,1.2,4.1-2.5,6.7-0.5C143.8,122.6,142.9,124.3,141.9,125.7"/>
		<polygon class="st9" points="145,120.8 136,115.4 137.1,113.5 146.1,118.9 		"/>
		<polygon class="st9" points="140.7,106.6 142.2,107.4 141.2,109.6 149,113.4 148,115.4 140.2,111.6 139.1,113.7 137.5,113 		"/>
		<polygon class="st9" points="147.9,106.6 140.6,106.9 141.4,104.6 146.1,104.6 142.4,101.6 143.2,99.5 148.7,104.5 152.1,105.7 
			151.4,107.8 		"/>
		<polygon class="st9" points="143.6,88.2 141.2,88.2 141.2,87.9 142,87.9 142,84.4 141.2,84.4 141.2,84.1 143.6,84.1 143.6,84.4 
			142.7,84.4 142.7,87.9 143.6,87.9 		"/>
		<path class="st9" d="M145,90.1c0.6,0,0.9-0.1,1.4-0.3c0.4-0.2,0.8-0.5,1-0.8c0.5-0.6,0.8-1.6,0.8-2.5c0-1.3-0.6-2.2-1.4-2.2
			c-0.7,0-1.3,0.8-1.3,1.6c0,0.9,0.6,1.5,1.5,1.5h0.4l-0.1,0.4c-0.3,0.1-0.5,0.1-0.7,0.1c-1.1,0-1.9-0.8-1.9-1.9c0-1.1,1-2,2.1-2
			c1.2,0,2.1,1.1,2.1,2.6c0,1.6-1.1,3.2-2.4,3.7c-0.5,0.2-0.8,0.2-1.6,0.2L145,90.1z"/>
		<path class="st9" d="M150.4,90.1c0.7,0,0.9-0.1,1.4-0.3c0.4-0.2,0.8-0.5,1-0.8c0.5-0.6,0.8-1.6,0.8-2.5c0-1.3-0.6-2.2-1.4-2.2
			c-0.7,0-1.3,0.8-1.3,1.6c0,0.9,0.6,1.5,1.5,1.5h0.4l-0.1,0.4c-0.3,0.1-0.5,0.1-0.7,0.1c-1.1,0-1.9-0.8-1.9-1.9c0-1.1,1-2,2.1-2
			c1.2,0,2.1,1.1,2.1,2.6c0,1.6-1.1,3.2-2.4,3.7c-0.5,0.2-0.8,0.2-1.6,0.2L150.4,90.1z"/>
		<path class="st9" d="M155.8,90.1c0.6,0,0.9-0.1,1.4-0.3c0.4-0.2,0.8-0.5,1-0.8c0.5-0.6,0.9-1.6,0.9-2.5c0-1.3-0.6-2.2-1.4-2.2
			c-0.7,0-1.3,0.8-1.3,1.6c0,0.9,0.6,1.5,1.5,1.5h0.4l-0.1,0.4c-0.3,0.1-0.5,0.1-0.7,0.1c-1.1,0-1.9-0.8-1.9-1.9c0-1.1,1-2,2.1-2
			c1.2,0,2.1,1.1,2.1,2.6c0,1.6-1.1,3.2-2.4,3.7c-0.5,0.2-0.8,0.2-1.6,0.2L155.8,90.1z"/>
		<path class="st9" d="M10.6,85c0.1-0.2,0.3-0.3,0.4-0.4c0.1-0.1,0.3-0.2,0.5-0.4l0,0c0.1,0.4,0.3,0.9,0.4,1.5
			c0.1,0.5,0.2,0.9,0.3,1.3c0.1,0.4,0.1,0.7,0.2,1.1c0,0.3,0.1,0.6,0.1,0.9c0,0.3,0,0.6,0,0.8c0,0.2-0.1,0.5-0.2,0.7
			c-0.1,0.2-0.3,0.4-0.5,0.6L11.8,91c0.1-0.1,0.1-0.3,0.1-0.5c0-0.2,0-0.3,0-0.5c0-0.2,0-0.6-0.1-0.9c-0.1-0.4-0.2-0.8-0.3-1.3
			c-0.1-0.5-0.3-0.9-0.4-1.4C11,85.9,10.8,85.5,10.6,85"/>
		<path class="st9" d="M17.1,87c0,0.2,0,0.3,0,0.5c0,0.2,0,0.3-0.1,0.5c-0.3,0.2-0.5,0.3-0.7,0.5c-0.2,0.2-0.4,0.3-0.6,0.5
			c-0.2,0.1-0.3,0.3-0.4,0.4c-0.1,0.1-0.1,0.2-0.1,0.3c0,0.1,0,0.2,0.1,0.2c0.1,0.1,0.2,0.1,0.3,0.1c0.1,0,0.2,0.1,0.4,0.1
			c0.1,0,0.2,0,0.3,0c0.4,0,0.8,0,1.1-0.1c0.3-0.1,0.7-0.2,1-0.3c0,0.1-0.1,0.3-0.2,0.5c-0.1,0.2-0.2,0.4-0.2,0.5
			c-0.3,0.1-0.5,0.2-0.8,0.2C16.9,91,16.6,91,16.2,91c-0.2,0-0.4,0-0.6-0.1c-0.2,0-0.4-0.1-0.5-0.2c-0.2-0.1-0.3-0.2-0.4-0.4
			c-0.1-0.1-0.1-0.3-0.1-0.5c0-0.2,0-0.4,0.1-0.6c0.1-0.2,0.2-0.4,0.3-0.5c0.1-0.2,0.2-0.3,0.4-0.5c0.1-0.1,0.2-0.3,0.4-0.4l0-0.1
			c-0.4-0.2-0.7-0.4-0.9-0.6c-0.2-0.2-0.3-0.4-0.3-0.5c0-0.2,0-0.3,0.1-0.5c0.1-0.2,0.2-0.3,0.3-0.5c0.1-0.2,0.2-0.3,0.4-0.4
			c0.1-0.1,0.3-0.2,0.4-0.3c0.3-0.2,0.6-0.4,1-0.5c0.3-0.1,0.7-0.2,0.9-0.2c0,0.2-0.1,0.3-0.1,0.5c-0.1,0.2-0.1,0.3-0.2,0.5
			c-0.2,0-0.5,0.1-0.7,0.2c-0.3,0.1-0.5,0.2-0.7,0.3c-0.2,0.1-0.4,0.2-0.5,0.3c-0.1,0.1-0.2,0.2-0.2,0.3c0,0.1,0,0.1,0.1,0.2
			c0.1,0.1,0.2,0.2,0.4,0.2c0.2,0.1,0.3,0.1,0.5,0.2c0.2,0.1,0.4,0.1,0.6,0.1h0.2C17,87,17,87,17.1,87"/>
		<path class="st9" d="M20.4,86c0,0.3,0.1,0.7,0.2,1.2c0.1,0.5,0.3,1.2,0.6,2c0,0.1,0.1,0.2,0.1,0.3c0,0.1,0.1,0.2,0.1,0.3
			c0,0.1,0.1,0.2,0.1,0.3c0,0.1,0,0.1,0,0.1c0,0,0,0.1-0.1,0.1c0,0.1-0.1,0.1-0.2,0.2c-0.1,0.1-0.1,0.1-0.2,0.2
			C21.1,90.9,21,91,21,91l-0.1,0c-0.2-0.7-0.4-1.3-0.6-1.8c-0.2-0.5-0.3-1-0.4-1.3c-0.1-0.4-0.2-0.7-0.2-0.9c0-0.2,0-0.4,0-0.6
			c0-0.2,0.1-0.4,0.2-0.7c0.1-0.2,0.2-0.5,0.4-0.7c0.2-0.2,0.4-0.4,0.6-0.6c0.2-0.1,0.5-0.2,0.8-0.2c0.3,0,0.6,0,0.9,0.1
			c0.3,0.1,0.5,0.1,0.7,0.2c-0.1,0.2-0.1,0.4-0.2,0.5c-0.1,0.2-0.2,0.4-0.2,0.5l0,0c-0.2-0.1-0.4-0.2-0.7-0.3
			c-0.3-0.1-0.5-0.1-0.7-0.1c-0.3,0-0.5,0.1-0.8,0.2C20.5,85.5,20.4,85.7,20.4,86"/>
		<path class="st9" d="M26.2,88c-0.1,0.1-0.2,0.3-0.3,0.4c-0.1,0.1-0.2,0.2-0.2,0.2c-0.1,0.1-0.1,0.1-0.2,0.1c0,0-0.1,0-0.2-0.1
			c-0.1-0.1-0.2-0.1-0.2-0.2c-0.1-0.1-0.2-0.1-0.2-0.2c-0.1-0.1-0.1-0.1-0.2-0.1l0.7-0.8L26.2,88z"/>
		<path class="st7" d="M85.4,119c0,0,0-0.2,0.1-0.6c0.1-0.2,0.1-0.4,0.2-0.6c0.1-0.2,0.2-0.5,0.4-0.8c0.2-0.3,0.4-0.6,0.6-0.8
			c0.2-0.3,0.6-0.5,0.9-0.8c0.3-0.2,0.7-0.5,1.1-0.6c0.2-0.1,0.4-0.2,0.6-0.3c0.2-0.1,0.4-0.1,0.6-0.2c0.2-0.1,0.4-0.1,0.6-0.2
			c0.2,0,0.4-0.1,0.6-0.1c0.2,0,0.4-0.1,0.6-0.1c0.2,0,0.4-0.1,0.6-0.1c0.4,0,0.8-0.1,1.1-0.1c0.4,0,0.7,0,1,0c0.3,0,0.6,0,0.9,0
			c0.3,0,0.5,0,0.7,0c0.4,0,0.6,0,0.6,0l0,0c0,0-0.2,0-0.6,0c-0.2,0-0.4,0-0.7,0c-0.3,0-0.6,0-0.9,0c-0.3,0-0.7,0-1,0.1
			c-0.4,0-0.7,0.1-1.1,0.1c-0.2,0-0.4,0.1-0.6,0.1c-0.2,0-0.4,0.1-0.6,0.1c-0.2,0.1-0.4,0.1-0.6,0.2c-0.2,0.1-0.4,0.1-0.6,0.2
			c-0.2,0.1-0.4,0.1-0.6,0.2c-0.2,0.1-0.4,0.2-0.5,0.3c-0.4,0.2-0.7,0.4-1,0.6c-0.3,0.3-0.6,0.5-0.8,0.7c-0.3,0.2-0.5,0.5-0.6,0.8
			c-0.2,0.3-0.3,0.5-0.4,0.7c-0.1,0.2-0.2,0.4-0.3,0.6C85.5,118.8,85.4,119,85.4,119L85.4,119z"/>
		<path class="st7" d="M80.9,119c0,0,0-0.2-0.2-0.6c-0.1-0.2-0.2-0.4-0.3-0.6c-0.1-0.2-0.3-0.5-0.4-0.7c-0.2-0.2-0.4-0.5-0.6-0.8
			c-0.2-0.3-0.5-0.5-0.8-0.7c-0.3-0.2-0.6-0.5-1-0.6c-0.2-0.1-0.4-0.2-0.6-0.3c-0.2-0.1-0.4-0.2-0.6-0.2c-0.2-0.1-0.4-0.2-0.6-0.2
			c-0.2-0.1-0.4-0.1-0.6-0.2c-0.2,0-0.4-0.1-0.6-0.1c-0.2,0-0.4-0.1-0.6-0.1c-0.4-0.1-0.8-0.1-1.1-0.1c-0.4,0-0.7,0-1-0.1
			c-0.3,0-0.6,0-0.9,0c-0.3,0-0.5,0-0.7,0c-0.4,0-0.6,0-0.6,0l0,0c0,0,0.2,0,0.6,0c0.2,0,0.4,0,0.7,0c0.3,0,0.5,0,0.9,0
			c0.3,0,0.7,0,1,0c0.4,0,0.7,0.1,1.1,0.1c0.2,0,0.4,0.1,0.6,0.1c0.2,0,0.4,0.1,0.6,0.1c0.2,0,0.4,0.1,0.6,0.1
			c0.2,0.1,0.4,0.1,0.6,0.2c0.2,0.1,0.4,0.1,0.6,0.2c0.2,0.1,0.4,0.2,0.6,0.3c0.4,0.2,0.7,0.4,1.1,0.6c0.3,0.3,0.6,0.5,0.9,0.8
			c0.3,0.3,0.4,0.6,0.6,0.8c0.2,0.3,0.3,0.5,0.4,0.8c0.1,0.2,0.2,0.5,0.2,0.6C80.9,118.8,80.9,119,80.9,119L80.9,119z"/>
	</g>
	<g>
		<path class="st8" d="M467.4,53.6c0.1,0.4,0.1,0.8,0.2,1.2c0.2,5.6,0.4,11.3,0.6,16.9c0,1,0.1,2.1,0.1,3.1c0.2,2.7,1.9,4.4,4.1,5.6
			c2.3,1.3,4.9,1.7,7.4,1.8c4.6,0.2,9.2-0.1,13.8-0.9c0.3,0,0.5-0.1,0.9-0.3c-1.5-1-2.8-2.1-4.3-2.9c-2.6-1.4-7.1-2.1-8.2-2
			c0.7-1.6,1.9-2.8,3.4-3.5c1.5-0.6,5.8,0.6,7.4,1.7c2.8,1.9,5.7,3.7,8.8,5.2c2,1,4.2,1.4,6.4,2.1c0.3,0.1,0.7,0.2,1.2,0.3
			c-1,1.5-2.4,2.3-3.7,3.1c-0.2,0.1-0.5,0-0.8,0c-2.8-1.1-5.7-1.4-8.8-0.7c-5.2,1.2-10.5,2-15.8,1.9c-2.5,0-5-0.2-7.4-0.7
			c-1.6-0.4-3.1-1.3-4.5-2.2c-1.4-0.9-2-2.5-2.1-4.2c-0.1-3.9-0.2-7.8-0.3-11.7c-0.1-3-0.2-6.1-0.4-9.1c-0.1-1.9,0.6-3.4,1.7-4.8
			C467.2,53.5,467.3,53.6,467.4,53.6"/>
		<path class="st8" d="M504.6,57c-0.8,1.8-1.5,2.7-3.2,3c-3.9,0.8-16.5,4.3-20.8,5.6c-2.1,0.6-4.1,1.7-6,2.5
			c0.2-1.4,1.1-2.8,2.5-3.3c2.6-1.1,5.3-2.1,8-2.9c5.9-1.6,16.1-4.3,17.3-4.5C503,57.2,503.6,57.2,504.6,57"/>
		<path class="st8" d="M412.6,75.4c-0.2-1.9,1.1-2.7,2.2-3.5c3.1-2.3,6.5-4.2,10-6c4-2.1,8.1-4,12.1-6c1.4-0.7,2.9-1.2,4.4-1.7
			c0.3-0.1,0.6-0.1,1.2-0.2c-0.5,1.1-0.7,2.1-1.9,2.5c-4,1.3-7.6,3.2-11.3,5.1c-2.9,1.5-5.8,2.9-8.6,4.5c-2.4,1.4-4.6,3-6.8,4.5
			C413.4,74.8,413.1,75.1,412.6,75.4"/>
		<path class="st8" d="M390.1,63.2c0.2-1.5,1.3-2.3,2.1-3.2c0.2-0.2,0.9-0.1,1.2,0.1c0.6,0.3,1.2,0.7,1.8,1.1
			c0.7,0.5,1.3,0.5,1.9-0.2c1-1.2,1.2-1.1,2.4-0.3c0.4,0.3,0.9,0.6,1.3,0.9c1,0.8,1.1,0.9,0.4,2c-0.1,0.2-0.3,0.5-0.5,0.7
			c-1.4,1.7-1.4,1.7-3.2,0.5c-0.2-0.2-0.5-0.3-0.7-0.5c-0.7-0.6-1.2-0.5-1.9,0.2c-1,1.1-1.2,1.1-2.5,0.3
			C391.7,64.3,390.9,63.7,390.1,63.2"/>
		<path class="st8" d="M492.9,92.4c-1.2-1-2.2-1.7-3.1-2.5c0.4-1.5,1.6-2.2,2.7-2.9c0.2-0.1,0.5-0.1,0.7,0c0.8,0.6,1.7,1.2,2.4,1.9
			c0.2,0.2,0.1,0.9-0.1,1.1C494.7,90.8,493.8,91.5,492.9,92.4"/>
		<path class="st9" d="M446.6,91.3c-1.1,0.3-1.7,1.1-2.5,2.2c0.4-0.1,0.7-0.1,0.9-0.2c2.9-0.9,5.8-1.7,8.7-2.6
			c0.9-0.3,1.4-0.9,2-1.9c-0.9,0.1-1.6,0.2-2.2,0.3C451.2,89.8,448.9,90.6,446.6,91.3"/>
		<path class="st9" d="M420.9,87.3c5.3-0.2,9.8-1.6,15.3-3.9l0.8-0.2c0.6-0.2,0.7-0.1,1.3,0.6c1.9,2.4,4.5,3,7.2,1.5
			c2.3-1.2,6.2-2.9,8.2-5c-0.2,1.3,0.4,2.1,1.2,2.6c1.1,0.7,2.2,1.4,3.4,1.9c2.7,1.3,2.9,1.2,4.9-0.9c0,0,0.1-0.1,0.1-0.1
			c0.7-0.5,0.8-1.2,0.6-2c-0.3-1.6-0.5-3.2-0.7-4.9c-0.2-1.9-2-3.2-3.7-2.4c-1.5,0.7-3.1,1.6-4.3,2.7c-2,1.7-5.9,3.3-8.2,4.4
			c-1.6,0.8-4.2,0.3-5.5-1.1c1.3-1.1,2.7-1.6,4.2-2c0.8-0.2,1.3-0.6,1.6-1.4c0.1-0.5,0.4-1.1,0.5-1.6c0.3-1.3,0.2-1.7-0.9-2.1
			c-2.1-0.8-4.3-1.7-6.5-2.1c-3.5-0.7-6.9,0.3-10.3,1.4c-0.3,0.1-0.6,0.3-0.7,0.6c-0.7,1.2-1.3,2.4-0.8,3.9c3-0.9,4.7,1,6.9,2.7
			c0,0-6.1,2.4-13.3,3.3c-4.7,0.6-12.3-1.2-15.2-2.9c-2.8-1.7-5-3.8-5.9-7.1c-0.4-1.8-1.8-2.2-3.2-1c-2,1.7-3.7,3.7-4.6,6.2
			c-0.5,1.4-1,2.7-2.1,3.7c-1,0.9-2.7,1.2-3.6,0.2c-0.7-0.8-1.3-1.9-1.5-2.9c-0.3-2.2-0.3-4.4-0.4-6.5c0-0.6,0.2-1.2-0.4-2
			c-0.2,0.6-0.3,1-0.4,1.3c-0.2,1.1-0.3,2.2-0.4,3.3c-0.4,3.2,0.1,6.2,1.7,9.1c1.2,2.2,3.8,2.6,5.5,0.7c0.6-0.7,1.1-1.5,1.6-2.3
			c1-1.7,1.9-3.4,2.9-5.1c0.3-0.6,0.8-1.1,1.3-1.5c0.9-0.7,1.8-0.8,2.3,0.5c0.5,1.2,1,2.4,1.6,3.6c0.7,1.5,2,2.6,3.4,3.4
			C407.6,86.2,415.7,87.6,420.9,87.3 M436.5,75.2c2-0.9,3.5,0.5,5.3,1.2c-0.8,0.6-1.6,1.1-2.6,1.8C438.3,77.1,437.5,76.2,436.5,75.2
			 M460.2,81.8c-1.4-1.1-2.6-2-3.8-3c0.7-0.8,1.4-1.1,2.3-0.7C459.8,78.6,460.3,79.5,460.2,81.8"/>
		<path class="st8" d="M390.3,51.2c1.3,1.3,1.3,2.6,0.9,3.9c0.9,0.3,1.7,0.6,2.6,1.3c0.3,0.6-0.6,1.2-0.5,1.8
			c-0.9-0.4-1.7-1.1-2.6-1.3c-1.3,2-3.6,5.7-6.1,7.5c-0.8,0.5-1.7,1.2-2.6,0.9c2.9-2.6,5.8-5.6,7.9-8.6c-0.5-0.8-1.1-0.2-1.6-1
			C388.1,54,388.8,52.6,390.3,51.2 M389.3,54.1c0.4,0.3,0.9,0.5,1.3,0.3c-0.4-0.4-0.2-0.8-0.8-1.1C389.5,53.6,389.3,53.9,389.3,54.1
			"/>
		<path class="st8" d="M224.2,78.6c1.5-2.4,2.4-5.4,4-7.6c1.2,2.3,2.5,4.6,5,6c1,0.6,1.8,0.7,3.3,1.1c1.7,0.5,3.9,0.8,6.4,0.9
			c13.5,0.5,30.3-2.4,41.2-4.2c-0.4-1.2-1.8-1.8-3-2.3c-3.2-1.2-8.3-1-12.7-0.9c-2.6,0.1-5.5,0.7-8.4,0.9
			c-5.6,0.4-11.5,0.9-17.4,0.5c-2.2-0.1-5.5-0.8-5.8-2.9c-0.1-0.8,0.4-1.6,0.8-2.5c1-2,1.4-2.7,2.9-4.3c1.8-1.9,3.9-3.5,6.5-4.8
			c3.5-1.8,7.1-3.5,11.6-3.6c-0.2,2-1.2,3.3-2.1,4.6c-3.4-0.8-7.2,1.2-10.2,2.6c-2.7,1.3-5.2,2.6-6.8,4.3c0.5,1.6,2.4,1.8,4,2.1
			c7.3,1.2,16.6-0.1,24-0.6c2.5-0.2,5-0.3,7.4-0.4c1.9-0.1,4.3-0.3,6.1,0.1c2.1,0.5,5.8,2.2,6.1,4c0.4,2.5-2.3,4.2-3.1,6
			c-0.5,6.6,7.4,4.6,11.4,3c2.1-0.9,4-1.9,5.2-2.5c-4.5-0.8-8.7-1.9-13.2-2.6c0.5-1.6,1.2-3,2.4-4c3.7-1,8.2-1.4,12-2.4
			c-0.6-4.9-1-10.6-1.3-15.9c-0.1-2.7,0.3-5.3-0.6-7.4c0.7-1.4,1.1-3,2.1-4.1c0.7,0.1,0.8,1.2,1,1.8c0.2,0.7,0.5,1.5,0.7,2.1
			c0.4,1.5,0.8,3.1,0.9,4.4c-0.9,0.5-1-1.2-1.7-1.5c-0.2,2.8-0.1,5.7,0.1,9c0.3,5.3,1.7,11-0.3,14.5c-1,0.4-1.8,1-2.9,1.2
			c0.8,0.7,2,0.5,3,0.6c2.5,0.4,6,1.4,8.9,1.5c1.5,0.1,3.1-0.5,4.4,0.1c0.1-4.4-0.9-9.9-1.2-15.4c-0.2-4,0.1-7.8-0.3-11.5
			c-0.1-0.7-0.6-1.5-0.5-2.1c0.1-0.9,0.7-1.2,1.1-2c0.4-0.8,0.2-1.9,1.1-2c0.8,2.9,2.3,6,2.2,9.3c-1.2,0.1-0.6-1.6-1.5-1.8
			c-1.1,11.8,3.4,25.1-1.1,34c-0.2-2,0.4-4.6,0.2-7.1c-0.8,0.3-1.4,2.2-2.4,2.8c-0.9,0.3-1.7-0.1-2.3-0.1
			c-8.6-0.5-15.2,5.7-22.3,7.1c-4.7,1-8-2-6.8-7.5c-4.9,0-10.2,1.6-15.7,2.3c-6.5,0.9-12.6,1.3-19.5,1.7c-5.5,0.3-11.3,0-15.3-2
			c-0.2,1.9-0.3,3.9-1.6,4.5c-1.3,0.5-3.8-0.9-4.3-3.1c-0.3-1.4,0.3-2.9,0.1-4.4c-0.8,0.8-0.9,1.9-1.4,3c-0.5,0.9-0.9,2-1.8,2.5
			c-2,1-5.2-0.1-6.4-1.7c-1.5-2-2-8-6.3-6.5c-2,0.7-3.3,3.9-4.4,6.8c-0.8,2.2-2.1,6.7-4,6.9c-1,0.1-2.3-0.5-3.3-1.4
			c-1.3-1.3-2.8-6.2-2.9-8.8c-0.1-2.1,0.1-4.4,0.8-6.1c0.6,0.4,0.4,1.4,0.4,2c-0.1,3.9,0.9,7.9,3.2,9.8c2.7,1.8,4.7-3.6,5.8-6.5
			c1-2.6,2.5-5.4,3.9-6.6c1.2-1.1,3.3-1.6,4.8-0.2c0.5,0.5,1.1,1.7,1.3,2.4c0.4,1.2,0.8,2.1,1.7,3.3c1,1.3,1.8,2.4,3.8,2.4
			C222.1,79.6,223.5,79.9,224.2,78.6 M230.1,81.6c0.1-1.9-1.3-3.6-2.2-5.1C227.2,78.7,227.7,81.7,230.1,81.6"/>
		<path class="st8" d="M352.1,42.7c0.1,0,0.2,0.1,0.2,0.2c1.2,2.8,3.1,4.9,3.2,8.8c-1.3,0.1-0.9-1.4-1.8-1.6
			c-0.4,1.6-0.2,3.5-0.1,5.8c0.5,9,3.4,19.2,0.3,26.5c-0.6,1.4-1,2.8-1.8,4.1c-0.2,0.4-0.4,1.1-1,1c0-1.7,1.3-2.9,1.8-4.6
			c0.3-1.3,0.4-3.1,0.4-4.6c0.1-4.2-0.9-9.2-1.5-14.1c-0.6-5.7-0.3-11.3-1.2-15.4c-0.1-0.5-0.5-1.1-0.5-1.6
			C350.2,45.3,351.8,44,352.1,42.7"/>
		<path class="st8" d="M242.6,44.9c0.4,0.7-0.2,1.8-0.5,2.3c-0.2,0.4-0.8,0.6-1.1,0.8c-4.2,2.6-9.2,5.1-13.6,7.7
			c-1.6,1-3.2,2.1-4.9,2.8c-0.3-2.5,2.5-3.4,4.1-4.3c5-3.1,10.5-6.2,15.7-9.2C242.4,45.1,242.5,45,242.6,44.9"/>
		<path class="st8" d="M377.1,44c0.7,1.9-1,2.2-2.3,3c-1.2,0.8-2.5,1.8-3.9,2.7c-1.3,0.8-2.6,1.6-3.9,2.5c-2.7,1.8-5.2,3.9-7.7,5.2
			c-0.2-2.2,1.1-2.4,2.6-3.5c0.7-0.5,1.3-1.1,2-1.5c3.9-2.6,9.3-6.3,12.9-8.4C376.9,44,377,44,377.1,44"/>
		<path class="st8" d="M266.5,52.2c-0.1-1.5,0-2.9,0.8-3.5c-0.2-1.1,0.4-1.6,0.8-2.1c0.9,0.6,2.1,1.1,2.3,2.4
			C270.8,51.4,268.4,54,266.5,52.2 M267.3,50.5c0.5,0.6,1.7,0.6,2.1,0c-0.3-0.9-0.9-1.4-1.7-1.8C267.6,49.3,267.1,49.6,267.3,50.5"
			/>
		<path class="st8" d="M208.9,60.2c0.7-0.6,0.9-1.7,1.6-2.3c2,0.8,3.7,1.8,5.1,3.2c-0.3,1.7-1.4,2.6-2.3,3.8
			c-1.4-0.9-2.9-1.6-4.3-2.4c-0.7,0.6-1,1.6-1.8,2.2c-1.9-0.6-3.4-1.5-4.8-2.6c0.3-1.8,1.4-2.8,2.1-4.1
			C206.3,58.4,207.6,59.3,208.9,60.2"/>
		<path class="st8" d="M365.5,60.8h0.5c1.8,2,4.2,3.4,5.3,6c-0.8,0.4-1.4-0.8-2.3-0.8c0.8,1.3,2.3,2.4,4,3.4
			c1.7,1.1,4.3,1.8,5.1,3.2c1,1.8,0.4,4.9-0.3,7.2c-3.4,1.8-8.5,4.4-12.7,6.5c-1.5,0.7-3.2,1.8-4.4,2c-2.6,0.4-4.3-0.8-4.3-3.1
			c0-0.4,0.6-5.1,1.1-7.1c0.4-1.5,0.6-3.3,1.6-4c0.7,0.7-0.1,1.6-0.3,2.5c-0.3,1.3-0.9,5.7-0.1,6.4c2,1.8,5-0.2,7-1.1
			c3.5-1.5,9.1-4,11.1-5.9c-0.9-0.8-6.8-4.1-8.4-6c-0.6-0.7-1.2-1.7-2-2.6c-0.6-0.7-1.9-1.9-2-2.6C364.2,63.6,365.3,62.4,365.5,60.8
			"/>
		<path class="st8" d="M349.5,68.7c-0.1,1.8-0.7,3-1.3,4.3c-1.2-0.2-1.5-0.8-3.3-0.6c-2,0.2-4.4,2.1-5.7,3.3
			c-2.5,2.5-4.2,6.2-6.1,9.3c-1.6,2.6-5.3,7.7-9,4.7c-3.1-2.6-1.7-10.5-0.5-14.4c0.3-1.1,0.3-2.6,1.4-2.8c-0.9,2.2-2,6.2-1.7,9.5
			c0.2,1.9,0.8,4.1,2.7,4.4c0.9,0.1,2-0.3,2.6-0.7c1.6-0.9,2.8-2.7,4.1-4.3c2.5-3.2,3.9-6.8,7.1-9.6c0.7-0.6,1.6-1.2,2.4-1.8
			C343.9,68.6,346.8,66.7,349.5,68.7"/>
		<path class="st8" d="M295.8,91.8c0.1-2.9,4.2-3.2,6.9-4.2c2.1-0.8,4.3-1.7,5.7-2.4c0.9,0.4-0.4,1.2-0.3,1.8
			C304,88.6,300,90.3,295.8,91.8"/>
		<path class="st8" d="M333.5,91.8c0.1-2.9,4.2-3.2,6.9-4.2c2.1-0.8,4.2-1.7,5.7-2.4c0.9,0.4-0.4,1.2-0.3,1.8
			C341.6,88.6,337.7,90.3,333.5,91.8"/>
		<path class="st9" d="M199.4,103h5c5.3,0,6,3.1,6,9.6c0,6.3-0.9,9.4-6.6,9.4h-4.3V103z M201.1,120.5h2c5.1,0,5.6-1.4,5.6-9.1
			c0-5.4-0.7-7-5.4-7h-2.2V120.5z"/>
		<path class="st9" d="M221.6,103l5.9,19h-1.8l-1.5-5h-7.4l-1.5,5h-1.7l6-19H221.6z M223.8,115.5l-3.2-10.7h-0.1l-3.2,10.7H223.8z"
			/>
		<path class="st9" d="M232.7,112.8v9.2H231v-19h5.2c3.7,0,4.6,1.2,4.6,4.5c0,2.4-0.4,3.9-2.9,4.5v0.1c2.6,0.6,2.8,0.9,2.8,7.6
			c0,0.7,0.1,1.5,0.2,2.2h-1.6c-0.2-0.6-0.2-3.7-0.3-4.7c0-0.8,0.5-4.5-3.1-4.5H232.7z M232.7,111.3h2.7c2.5,0,3.7-0.7,3.7-3.8
			c0-2.6-1-3.1-3-3.1h-3.4V111.3z"/>
		<path class="st9" d="M259.1,103l5.9,19h-1.8l-1.5-5h-7.4l-1.5,5h-1.7l6-19H259.1z M261.3,115.5l-3.2-10.7H258l-3.2,10.7H261.3z"/>
		<polygon class="st9" points="268.5,121.9 268.5,103 270.2,103 270.2,120.5 276.5,120.5 276.5,121.9 		"/>
		<rect x="279.3" y="114.2" class="st9" width="5.3" height="1.5"/>
		<polygon class="st9" points="288.8,121.9 288.8,103 290.4,103 290.4,111.5 297.9,111.5 297.9,103 299.6,103 299.6,121.9 
			297.9,121.9 297.9,112.9 290.4,112.9 290.4,121.9 		"/>
		<polygon class="st9" points="313.4,103 313.4,104.4 306.4,104.4 306.4,111.5 313,111.5 313,112.9 306.4,112.9 306.4,120.5 
			313.5,120.5 313.5,121.9 304.8,121.9 304.8,103 		"/>
		<polygon class="st9" points="317.8,121.9 317.8,103 319.5,103 319.5,111.7 319.5,111.7 326.3,103 328.3,103 321.2,111.8 
			328.5,121.9 326.4,121.9 319.5,112.2 319.5,112.2 319.5,121.9 		"/>
		<polygon class="st9" points="332.1,121.9 332.1,103 334.9,103 340.5,120.1 340.6,120.1 346.1,103 348.8,103 348.8,121.9 
			347.1,121.9 347.1,104.6 347,104.6 341.5,121.9 339.5,121.9 333.8,104.6 333.8,104.6 333.8,121.9 		"/>
		<path class="st9" d="M360.3,103l5.9,19h-1.8l-1.5-5h-7.4l-1.5,5h-1.7l6-19H360.3z M362.5,115.5l-3.2-10.7h-0.1l-3.2,10.7H362.5z"
			/>
		<path class="st9" d="M378.5,114.9c0,2.5,0,6,3.9,6c3.9,0,3.9-3.5,3.9-6V103h1.7v13.2c0,4.9-2.6,6.2-5.5,6.2c-3,0-5.5-1.3-5.5-6.2
			V103h1.7V114.9z"/>
		<polygon class="st9" points="392.9,121.9 392.9,103 395.5,103 403.2,119.6 403.3,119.6 403.3,103 405,103 405,121.9 402.4,121.9 
			394.7,105.1 394.6,105.2 394.6,121.9 		"/>
		<rect x="410.4" y="103" class="st9" width="1.7" height="19"/>
		<polygon class="st9" points="426.7,103 428.3,103 423,121.9 420.9,121.9 415.7,103 417.5,103 421.9,120 422,120 		"/>
		<polygon class="st9" points="440.4,103 440.4,104.4 433.5,104.4 433.5,111.5 440.1,111.5 440.1,112.9 433.5,112.9 433.5,120.5 
			440.6,120.5 440.6,121.9 431.8,121.9 431.8,103 		"/>
		<path class="st9" d="M446.3,112.8v9.2h-1.7v-19h5.2c3.7,0,4.6,1.2,4.6,4.5c0,2.4-0.4,3.9-2.9,4.5v0.1c2.7,0.6,2.8,0.9,2.8,7.6
			c0,0.7,0.1,1.5,0.2,2.2h-1.6c-0.2-0.6-0.2-3.7-0.3-4.7c0-0.8,0.5-4.5-3.1-4.5H446.3z M446.3,111.3h2.7c2.5,0,3.7-0.7,3.7-3.8
			c0-2.6-1-3.1-3-3.1h-3.4V111.3z"/>
		<path class="st9" d="M467.2,107.8c0-2.3-0.6-3.8-3.2-3.8c-2.1,0-3.3,0.7-3.3,2.9c0,2.8,1.4,2.9,3.6,4.4c2.3,1.7,4.7,2.2,4.7,5.9
			c0,3.4-1.7,5-5,5c-3.7,0-5.4-2-5.2-5.7h1.7c0,2.1,0.2,4.3,3.5,4.3c2.2,0,3.3-1.2,3.3-3.4c0-2.6-1.7-3.3-4.4-5
			c-3.7-2.3-3.8-3.4-3.9-5.3c0-3.3,2.1-4.6,5.2-4.6c3.9,0,4.8,2.4,4.8,5.2H467.2z"/>
		<rect x="473.8" y="103" class="st9" width="1.7" height="19"/>
		<polygon class="st9" points="483.9,104.4 479.2,104.4 479.2,103 490.2,103 490.2,104.4 485.6,104.4 485.6,122 483.9,122 		"/>
		<polygon class="st9" points="497.6,114.1 492.2,103 494.1,103 498.4,112.4 503,103 504.6,103 499.2,114.1 499.2,121.9 
			497.6,121.9 		"/>
	</g>
</g>
</svg>
