<?xml version="1.0" encoding="utf-8"?>
<!-- Generator: Adobe Illustrator 16.0.0, SVG Export Plug-In . SVG Version: 6.00 Build 0)  -->
<!DOCTYPE svg PUBLIC "-//W3C//DTD SVG 1.1//EN" "http://www.w3.org/Graphics/SVG/1.1/DTD/svg11.dtd">
<svg version="1.1" xmlns="http://www.w3.org/2000/svg" xmlns:xlink="http://www.w3.org/1999/xlink" x="0px" y="0px" width="170px"
	 height="56.75px" viewBox="0 0 170 56.75" enable-background="new 0 0 170 56.75" xml:space="preserve">
<g id="Layer_2" display="none">
	<rect x="-107.537" y="-99.78" display="inline" fill="#F04923" width="442.683" height="304.878"/>
</g>
<g id="Layer_3" display="none">
	<polygon display="inline" fill="#FFFFFF" points="52.337,39.167 52.337,29.717 50.702,29.717 50.702,27.804 56.832,27.804 
		59.543,37.862 62.384,27.804 68.503,27.804 68.503,29.717 66.789,29.717 66.789,39.167 68.503,39.167 68.503,41.131 62.731,41.131 
		62.731,39.167 64.237,39.167 64.237,29.717 60.829,41.131 57.987,41.131 54.647,29.717 54.647,39.167 56.054,39.167 56.054,41.131 
		50.702,41.131 50.702,39.167 	"/>
	<path display="inline" fill="#FFFFFF" d="M76.751,38.171h2.512c-0.226,1.076-0.703,1.881-1.43,2.412
		c-0.729,0.531-1.724,0.797-2.987,0.797c-1.581,0-2.809-0.438-3.684-1.312c-0.873-0.872-1.311-2.097-1.311-3.673
		c0-1.547,0.43-2.769,1.288-3.662c0.856-0.895,2.026-1.341,3.507-1.341c1.517,0,2.685,0.423,3.505,1.266
		c0.819,0.844,1.231,2.051,1.231,3.619c0,0.092-0.004,0.201-0.01,0.324c-0.007,0.123-0.017,0.297-0.031,0.522l-6.756,0.01
		c0,0.745,0.184,1.316,0.553,1.72c0.368,0.4,0.898,0.602,1.589,0.602c0.505,0,0.923-0.106,1.256-0.317
		C76.317,38.926,76.572,38.603,76.751,38.171 M72.605,35.399h4.105V35.19c0-0.566-0.19-1.027-0.573-1.382
		c-0.382-0.354-0.871-0.532-1.47-0.532c-0.611,0-1.108,0.192-1.49,0.582C72.796,34.249,72.605,34.763,72.605,35.399"/>
	<path display="inline" fill="#FFFFFF" d="M82.138,39.236v-5.761h-1.284v-1.832h3.966v1.713c0.365-0.692,0.789-1.201,1.272-1.532
		c0.479-0.325,1.037-0.49,1.669-0.49c0.146,0,0.306,0.01,0.477,0.034c0.173,0.024,0.381,0.057,0.619,0.104v2.253
		c-0.173-0.035-0.349-0.057-0.527-0.071c-0.18-0.013-0.363-0.02-0.549-0.02c-1.017,0-1.765,0.291-2.243,0.871
		c-0.479,0.584-0.718,1.491-0.718,2.729v2.002h1.345v1.896h-5.371v-1.896H82.138z"/>
	<path display="inline" fill="#FFFFFF" d="M99.775,41.132h-3.718v-1.288c-0.378,0.52-0.822,0.905-1.329,1.157
		c-0.51,0.253-1.105,0.38-1.791,0.38c-1.01,0-1.823-0.281-2.441-0.843s-0.927-1.297-0.927-2.209c0-1.009,0.351-1.792,1.051-2.346
		c0.702-0.556,1.694-0.834,2.976-0.834h2.462v-0.734c0-0.36-0.167-0.655-0.503-0.885c-0.337-0.229-0.779-0.344-1.331-0.344
		c-0.517,0-0.921,0.119-1.21,0.353c-0.29,0.237-0.45,0.573-0.484,1.016l-2.512,0.009c0.079-1.11,0.449-1.916,1.111-2.418
		c0.661-0.502,1.68-0.753,3.055-0.753c1.542,0,2.663,0.266,3.359,0.799c0.696,0.529,1.047,1.382,1.047,2.55v4.495h1.186V41.132z
		 M96.058,36.905c-0.218-0.021-0.429-0.037-0.632-0.045c-0.203-0.01-0.394-0.016-0.573-0.016c-0.824,0-1.447,0.109-1.87,0.329
		c-0.42,0.22-0.631,0.545-0.631,0.978c0,0.411,0.121,0.728,0.367,0.951c0.246,0.223,0.599,0.334,1.056,0.334
		c0.68,0,1.218-0.222,1.621-0.668C95.798,38.323,96.018,37.702,96.058,36.905"/>
	<polygon display="inline" fill="#FFFFFF" points="101.591,41.131 101.591,39.147 103.324,39.147 103.324,29.698 101.591,29.698 
		101.591,27.803 113.473,27.803 113.473,31.741 111.229,31.741 111.229,29.698 106.167,29.698 106.167,33.397 108.021,33.397 
		108.021,31.581 110.123,31.581 110.123,36.983 108.021,36.983 108.021,35.23 106.167,35.23 106.167,39.147 111.19,39.147 
		111.19,36.745 113.473,36.745 113.473,41.131 	"/>
	<polygon display="inline" fill="#FFFFFF" points="114.652,33.476 114.652,31.644 119.926,31.644 119.926,33.476 118.581,33.476 
		120.574,38.969 122.658,33.476 121.311,33.476 121.311,31.644 126.236,31.644 126.236,33.476 125.269,33.476 122.05,41.132 
		118.82,41.132 115.719,33.476 	"/>
	<path display="inline" fill="#FFFFFF" d="M134.154,38.171h2.512c-0.226,1.076-0.703,1.881-1.431,2.412s-1.723,0.797-2.985,0.797
		c-1.581,0-2.808-0.438-3.682-1.312c-0.875-0.872-1.311-2.097-1.311-3.673c0-1.547,0.427-2.769,1.285-3.662
		c0.856-0.895,2.026-1.341,3.509-1.341c1.514,0,2.682,0.423,3.504,1.266c0.819,0.844,1.229,2.051,1.229,3.619
		c0,0.092-0.004,0.201-0.009,0.324c-0.008,0.123-0.018,0.297-0.031,0.522l-6.757,0.01c0,0.745,0.184,1.316,0.554,1.72
		c0.368,0.4,0.896,0.602,1.589,0.602c0.504,0,0.924-0.106,1.257-0.317C133.719,38.926,133.974,38.603,134.154,38.171
		 M130.009,35.399h4.104V35.19c0-0.566-0.19-1.027-0.572-1.382c-0.383-0.354-0.87-0.532-1.469-0.532
		c-0.613,0-1.108,0.192-1.491,0.582C130.199,34.249,130.009,34.763,130.009,35.399"/>
	<path display="inline" fill="#FFFFFF" d="M138.274,41.131v-1.895h1.286v-5.761h-1.286v-1.834h3.908v1.506
		c0.432-0.606,0.919-1.05,1.46-1.33c0.541-0.283,1.185-0.425,1.929-0.425c1.124,0,1.951,0.295,2.481,0.881
		c0.532,0.591,0.798,1.508,0.798,2.756v4.207h1.267v1.895h-5.401v-1.895h1.443v-4.207c0-0.518-0.145-0.927-0.433-1.225
		c-0.289-0.299-0.684-0.448-1.181-0.448c-0.687,0-1.24,0.228-1.665,0.682c-0.425,0.457-0.639,1.054-0.639,1.791v3.407h1.445v1.895
		H138.274z"/>
	<path display="inline" fill="#FFFFFF" d="M157.527,33.516h-2.512v5.043c0,0.307,0.054,0.529,0.16,0.669
		c0.106,0.139,0.272,0.21,0.498,0.21c0.28,0,0.488-0.101,0.626-0.3c0.142-0.2,0.212-0.502,0.212-0.908v-0.258h1.653
		c0.015,0.158,0.023,0.28,0.031,0.369c0.006,0.085,0.01,0.159,0.01,0.218c0,0.911-0.255,1.607-0.764,2.095
		c-0.508,0.485-1.232,0.727-2.177,0.727c-1.018,0-1.761-0.205-2.232-0.613c-0.473-0.408-0.708-1.048-0.708-1.919v-5.332h-1.515
		v-1.874h1.515v-1.884l2.69-0.977v2.861h2.512V33.516z"/>
	<path display="inline" fill="#FFFFFF" d="M161.438,41.189h-2.012v-3.429h2.012c0.161,0.56,0.41,0.974,0.747,1.247
		c0.34,0.271,0.779,0.409,1.315,0.409c0.399,0,0.724-0.09,0.974-0.264c0.25-0.179,0.375-0.401,0.375-0.675
		c0-0.45-0.746-0.856-2.233-1.215c-0.134-0.034-0.23-0.056-0.29-0.07c-1.196-0.285-1.988-0.633-2.377-1.041
		c-0.388-0.409-0.584-1.029-0.584-1.859c0-0.891,0.31-1.597,0.928-2.118s1.459-0.782,2.523-0.782c0.557,0,1.045,0.101,1.465,0.3
		c0.417,0.199,0.773,0.501,1.066,0.906v-0.957h1.932v3.062h-1.932c-0.075-0.474-0.283-0.844-0.63-1.112
		c-0.343-0.269-0.784-0.403-1.315-0.403c-0.379,0-0.681,0.082-0.907,0.248c-0.225,0.167-0.338,0.383-0.338,0.648
		c0,0.498,0.79,0.916,2.373,1.256c0.199,0.039,0.354,0.075,0.468,0.1c0.937,0.2,1.612,0.526,2.027,0.977
		c0.416,0.45,0.623,1.084,0.623,1.895c0,0.923-0.309,1.662-0.927,2.217c-0.618,0.556-1.444,0.832-2.481,0.832
		c-0.646,0-1.198-0.114-1.66-0.343c-0.461-0.23-0.842-0.574-1.142-1.031V41.189z"/>
	<polygon display="inline" fill="#FFFFFF" points="52.349,39.167 52.349,29.717 50.715,29.717 50.715,27.804 56.844,27.804 
		59.556,37.862 62.396,27.804 68.516,27.804 68.516,29.717 66.802,29.717 66.802,39.167 68.516,39.167 68.516,41.131 62.745,41.131 
		62.745,39.167 64.25,39.167 64.25,29.717 60.841,41.131 58,41.131 54.661,29.717 54.661,39.167 56.067,39.167 56.067,41.131 
		50.715,41.131 50.715,39.167 	"/>
	<path display="inline" fill="#FFFFFF" d="M76.764,38.171h2.512c-0.226,1.076-0.703,1.881-1.431,2.412s-1.723,0.797-2.985,0.797
		c-1.581,0-2.81-0.438-3.683-1.312c-0.874-0.872-1.311-2.097-1.311-3.673c0-1.547,0.429-2.769,1.286-3.662
		c0.857-0.895,2.026-1.341,3.507-1.341c1.516,0,2.683,0.423,3.503,1.266c0.822,0.844,1.232,2.051,1.232,3.619
		c0,0.092-0.003,0.201-0.009,0.324c-0.009,0.123-0.018,0.297-0.031,0.522l-6.758,0.01c0,0.745,0.185,1.316,0.553,1.72
		c0.367,0.4,0.899,0.602,1.59,0.602c0.505,0,0.923-0.106,1.255-0.317C76.328,38.926,76.584,38.603,76.764,38.171 M72.618,35.399
		h4.105V35.19c0-0.566-0.191-1.027-0.572-1.382c-0.382-0.354-0.872-0.532-1.471-0.532c-0.612,0-1.108,0.192-1.49,0.582
		C72.808,34.249,72.618,34.763,72.618,35.399"/>
	<path display="inline" fill="#FFFFFF" d="M82.15,39.236v-5.761h-1.285v-1.832h3.967v1.713c0.365-0.692,0.789-1.201,1.271-1.532
		c0.483-0.325,1.039-0.49,1.669-0.49c0.146,0,0.306,0.01,0.479,0.034s0.378,0.057,0.619,0.104v2.253
		c-0.173-0.035-0.349-0.057-0.527-0.071c-0.181-0.013-0.364-0.02-0.551-0.02c-1.016,0-1.763,0.291-2.243,0.871
		c-0.478,0.584-0.717,1.491-0.717,2.729v2.002h1.346v1.896h-5.374v-1.896H82.15z"/>
	<path display="inline" fill="#FFFFFF" d="M99.787,41.132h-3.716v-1.288c-0.38,0.52-0.823,0.905-1.331,1.157
		c-0.51,0.253-1.104,0.38-1.789,0.38c-1.01,0-1.824-0.281-2.441-0.843c-0.619-0.562-0.928-1.297-0.928-2.209
		c0-1.009,0.351-1.792,1.052-2.346c0.7-0.556,1.692-0.834,2.975-0.834h2.463v-0.734c0-0.36-0.17-0.655-0.505-0.885
		c-0.336-0.229-0.779-0.344-1.33-0.344c-0.518,0-0.922,0.119-1.211,0.353c-0.288,0.237-0.45,0.573-0.482,1.016l-2.512,0.009
		c0.08-1.11,0.448-1.916,1.11-2.418c0.66-0.502,1.679-0.753,3.055-0.753c1.541,0,2.661,0.266,3.359,0.799
		c0.698,0.529,1.048,1.382,1.048,2.55v4.495h1.184V41.132z M96.071,36.905c-0.221-0.021-0.432-0.037-0.634-0.045
		c-0.203-0.01-0.395-0.016-0.572-0.016c-0.825,0-1.448,0.109-1.869,0.329c-0.423,0.22-0.634,0.545-0.634,0.978
		c0,0.411,0.123,0.728,0.369,0.951c0.245,0.223,0.598,0.334,1.057,0.334c0.677,0,1.219-0.222,1.62-0.668
		C95.81,38.323,96.031,37.702,96.071,36.905"/>
	<polygon display="inline" fill="#FFFFFF" points="101.604,41.131 101.604,39.147 103.338,39.147 103.338,29.698 101.604,29.698 
		101.604,27.803 113.485,27.803 113.485,31.741 111.242,31.741 111.242,29.698 106.179,29.698 106.179,33.397 108.034,33.397 
		108.034,31.581 110.137,31.581 110.137,36.983 108.034,36.983 108.034,35.23 106.179,35.23 106.179,39.147 111.202,39.147 
		111.202,36.745 113.485,36.745 113.485,41.131 	"/>
	<polygon display="inline" fill="#FFFFFF" points="114.666,33.476 114.666,31.644 119.938,31.644 119.938,33.476 118.593,33.476 
		120.587,38.969 122.67,33.476 121.323,33.476 121.323,31.644 126.247,31.644 126.247,33.476 125.28,33.476 122.061,41.132 
		118.831,41.132 115.732,33.476 	"/>
	<path display="inline" fill="#FFFFFF" d="M134.168,38.171h2.509c-0.224,1.076-0.702,1.881-1.428,2.412
		c-0.729,0.531-1.724,0.797-2.986,0.797c-1.58,0-2.81-0.438-3.682-1.312c-0.875-0.872-1.313-2.097-1.313-3.673
		c0-1.547,0.428-2.769,1.287-3.662c0.857-0.895,2.028-1.341,3.509-1.341c1.514,0,2.683,0.423,3.502,1.266
		c0.82,0.844,1.232,2.051,1.232,3.619c0,0.092-0.004,0.201-0.01,0.324c-0.009,0.123-0.019,0.297-0.031,0.522L130,37.134
		c0,0.745,0.186,1.316,0.555,1.72c0.367,0.4,0.898,0.602,1.591,0.602c0.503,0,0.923-0.106,1.253-0.317
		C133.73,38.926,133.987,38.603,134.168,38.171 M130.021,35.399h4.106V35.19c0-0.566-0.19-1.027-0.573-1.382
		c-0.382-0.354-0.872-0.532-1.471-0.532c-0.611,0-1.106,0.192-1.489,0.582C130.212,34.249,130.021,34.763,130.021,35.399"/>
	<path display="inline" fill="#FFFFFF" d="M138.288,41.131v-1.895h1.286v-5.761h-1.286v-1.834h3.906v1.506
		c0.433-0.606,0.919-1.05,1.461-1.33c0.542-0.283,1.186-0.425,1.929-0.425c1.124,0,1.951,0.295,2.481,0.881
		c0.532,0.591,0.798,1.508,0.798,2.756v4.207h1.266v1.895h-5.402v-1.895h1.445v-4.207c0-0.518-0.144-0.927-0.435-1.225
		c-0.288-0.299-0.681-0.448-1.18-0.448c-0.686,0-1.241,0.228-1.665,0.682c-0.424,0.457-0.638,1.054-0.638,1.791v3.407h1.445v1.895
		H138.288z"/>
	<path display="inline" fill="#FFFFFF" d="M157.539,33.516h-2.511v5.043c0,0.307,0.054,0.529,0.161,0.669
		c0.105,0.139,0.271,0.21,0.497,0.21c0.279,0,0.487-0.101,0.628-0.3c0.141-0.2,0.208-0.502,0.208-0.908v-0.258h1.656
		c0.013,0.158,0.022,0.28,0.03,0.369c0.006,0.085,0.01,0.159,0.01,0.218c0,0.911-0.255,1.607-0.764,2.095
		c-0.509,0.485-1.233,0.727-2.177,0.727c-1.018,0-1.761-0.205-2.234-0.613c-0.471-0.408-0.707-1.048-0.707-1.919v-5.332h-1.515
		v-1.874h1.515v-1.884l2.691-0.977v2.861h2.511V33.516z"/>
	<path display="inline" fill="#FFFFFF" d="M161.452,41.189h-2.014v-3.429h2.014c0.158,0.56,0.409,0.974,0.747,1.247
		c0.34,0.271,0.777,0.409,1.316,0.409c0.398,0,0.721-0.09,0.972-0.264c0.249-0.179,0.373-0.401,0.373-0.675
		c0-0.45-0.744-0.856-2.232-1.215c-0.133-0.034-0.229-0.056-0.288-0.07c-1.197-0.285-1.99-0.633-2.378-1.041
		c-0.389-0.409-0.584-1.029-0.584-1.859c0-0.891,0.31-1.597,0.928-2.118c0.619-0.521,1.458-0.782,2.521-0.782
		c0.559,0,1.048,0.101,1.466,0.3c0.419,0.199,0.775,0.501,1.067,0.906v-0.957h1.934v3.062h-1.934
		c-0.074-0.474-0.282-0.844-0.629-1.112c-0.345-0.269-0.784-0.403-1.314-0.403c-0.38,0-0.684,0.082-0.908,0.248
		c-0.226,0.167-0.339,0.383-0.339,0.648c0,0.498,0.792,0.916,2.373,1.256c0.198,0.039,0.355,0.075,0.468,0.1
		c0.938,0.2,1.613,0.526,2.029,0.977s0.622,1.084,0.622,1.895c0,0.923-0.31,1.662-0.926,2.217c-0.618,0.556-1.447,0.832-2.481,0.832
		c-0.645,0-1.199-0.114-1.661-0.343c-0.461-0.23-0.842-0.574-1.141-1.031V41.189z"/>
	<path display="inline" fill="#FFFFFF" d="M32.68,15.852v0.716l9.979-7.548c0.892,1.438,2.296,3.267,3.514,4.527l0.807,0.253
		c-3.02-4.445-4.482-7.48-4.482-7.48L32.68,15.852z"/>
	<path display="inline" fill="#FFFFFF" d="M48.028,8.564c-1.146-1.724-2.404-3.23-3.54-4.242c-1.284-1.142-2.244-1.513-2.853-1.107
		l-16.539,17.38l0.013,0.155c0.082,1.026,1.028,2.837,1.999,3.049l0.079,0.017l3.989-0.968v0.013l0.146-0.03
		c0.603,1,1.054,1.521,1.71,1.979c1.229,0.042,2.816,0.433,3.464,0.607l0.496-0.903c0.33-0.598,0.5-1.269,0.496-1.951l-0.008-1.576
		l11.833-4.006l0.286-0.088c0.645-0.209,1.056-0.474,1.233-0.803l0.036-0.074C51.305,14.798,50.137,11.733,48.028,8.564
		 M50.208,15.765c-0.037,0.082-0.253,0.271-0.818,0.457l-12.249,4.136l-2.236-1.173l-0.074-0.028
		c-0.428-0.113-0.761-0.058-1.083,0.169l-1.348,0.792l-0.169,0.16c-0.273,0.418-0.17,0.809-0.152,0.868l0.191,0.655
		c0,0.001-0.03,0.046-0.201,0.104l-4.875,1.185c-0.496-0.198-1.221-1.401-1.36-2.244L42.054,3.789
		c0.202-0.09,0.813,0.037,1.964,1.062c1.093,0.973,2.309,2.431,3.423,4.105C49.558,12.14,50.509,14.926,50.208,15.765"/>
	<path display="inline" fill="#FFFFFF" d="M36.665,27.982l0.213-1.594c0,0-2.344-0.794-4.205-0.753l-0.29,1.544
		c-0.176,0.016-0.676,0.06-0.676,0.06l-1.634,6.265c-0.018,0.076-0.007,0.154,0.024,0.225c-1.224,0-3.326-0.049-4.415-0.354
		c-0.976-1.39-1.691-2.243-2.207-2.726c-0.135,0.118-0.319,0.326-0.815,0.173c-0.11,0.326-0.377,1.02-0.735,1.182
		c-0.273,0.145-0.867-0.218-1.445-0.947c-0.051-0.063-0.087-0.111-0.087-0.111l0.001-0.003c-0.425-0.576-0.788-1.286-0.84-1.864
		c-0.042-0.452,0.167-0.634,0.532-0.634c0.369,0,0.9,0.186,1.497,0.464l-0.453-1.272c0,0-1.829-0.157-2.531-0.563l-0.188-0.718
		c0,0,1.73,0.771,4.354,0.331c0.24-0.041,0.474-0.268,0.54-0.484c0.087-0.28-0.03-0.534-0.049-0.727
		c-0.012-0.121,0.009-0.27,0.038-0.393c0.031-0.139-0.076-0.24-0.294-0.253c-0.585-0.04-1.7-0.227-1.952-1.078
		c-0.073-0.248-0.113-0.921,0.067-1.205c-1.585,0.783-2.591,0.447-3.177,0.064l-0.332-0.609c0,0,0.587,0.129,1.187,0.025
		c0.477-0.081,0.965-0.339,1.309-0.559l0.39-0.277c0.021-0.016,0.04-0.029,0.059-0.041l0.567-0.403l0.77-0.461l0.487-0.351
		c0.221-0.161,0.165-0.486-0.102-0.571l-2.458-1.27c-0.298-0.119-0.497-0.385-0.512-0.688l-0.004-0.077
		c-0.017-0.335-0.214-0.639-0.526-0.81l-0.583-0.318l0.573-1.054l-0.002-0.003c0.908-1.686,0.862-2.32,0.757-2.631
		c-0.056-0.165-0.172-0.291-0.324-0.354c-1.125-0.476-2.758,1.489-3.859,1.933c-1.579-0.77-3.269-2.821-4.72-4.671
		c-0.269-0.342-0.759-0.42-1.118-0.176c-2.517,1.712-5.485,6.037-6.679,9.001c-0.086,0.214-0.078,0.456,0.02,0.666
		c0.098,0.206,0.28,0.365,0.499,0.433c1.349,0.421,3.557,1.722,4.534,2.555c-0.593,1.11-1.991,3.951-1.178,4.544
		c0.202,0.148,0.979,0.449,3.424-1.973c0.213-0.231,0.451-0.486,0.451-0.486l-0.5-0.48c-0.918,0.803-2.602,2.387-2.874,2.234
		c-0.274-0.153,0.735-2.584,1.425-3.73l-0.056-0.437c-0.991-0.958-3.568-2.448-5.014-2.902c-0.043-0.013-0.063-0.044-0.072-0.062
		c-0.008-0.019-0.021-0.055-0.003-0.098c1.131-2.809,4.045-7.064,6.421-8.681c0.053-0.036,0.125-0.025,0.164,0.027
		c0.563,0.717,2.954,4.017,5.16,4.959l0.311-0.017c1.306-0.562,2.814-2.282,3.256-2.013c0.188,0.115-0.031,0.976-0.985,2.644
		c-0.145,0.241-0.489,0.759-0.542,0.841c-1.039,1.418-3.353,3.754-3.58,3.98c0,0,1.11,1.069,1.137,1.099
		c0.294,0.359,0.732,0.504,1.149,0.469l0.148,0.566l-1.055,0.633c-0.327-0.199-0.984-0.603-1.022-0.622
		c-0.156-0.087-0.599-0.244-0.9,0.038c-0.3,0.284-0.228,0.765,0.066,1.013l1.391,1.458c0.45,0.503,0.382,1.729-0.781,2.09
		c-0.185,0.073-0.402,0.089-0.648,0.019c-0.161-0.044-0.305-0.104-0.437-0.181c-0.004,0.02-0.072,0.35-0.072,0.35
		s0.155,1.281,0.158,1.31c0.004,0.026,0.018,0.08,0.039,0.152c0.118,0.422,0.061,1.708-0.523,3.255l-0.077,0.203
		c-0.432,1.136-0.877,2.313-0.942,3.924c-0.055,1.395,0.366,2.455,1,4.062c0.137,0.345,0.284,0.716,0.439,1.124l0.17,0.444
		c0.576,1.492,2.232,4.735,2.383,6.001c0.164,1.357-0.668,2.668-1.48,3.522c0.052,0.204,0.125,0.485,0.206,0.809
		c0.919-0.848,2.207-2.495,1.976-4.414c-0.162-1.355-1.787-4.515-2.426-6.173l-0.168-0.442c-0.157-0.409-0.305-0.782-0.443-1.131
		c-0.624-1.577-1.001-2.528-0.951-3.773c0.06-1.497,0.486-2.619,0.898-3.7l0.076-0.205c0.436-1.15,0.902-2.373,0.562-3.633
		c0.453,0.226,3.689,1.873,6.667,3.73c0.082,0.047,0.171,0.098,0.266,0.156c3.912,2.379,9.497,2.091,10.381,2.026
		c0.896,0.818,1.937,1.927,1.95,1.938l0.278-0.259c-0.066-0.07-1.294-1.854-2.281-2.663l1.612-6.2
		c1.125,0.01,3.181,0.473,4.17,0.829c-0.104,0.771-0.264,2.312-0.406,3.419c-0.249,1.928-0.57,4.411-0.831,6.517
		c-0.008,0.046-0.062,0.335-0.114,0.617c-0.036,0.198-0.072,0.395-0.09,0.495c-0.298,0.211-1.724,0.736-3.39,1.04
		c-0.905,0.137-2.191,0.293-4.12,0.323c0,0-4.747,0.017-6.895-0.678l0.189,0.508c1.37,0.604,2.898,0.902,4.384,1.012
		c0.104,1.234,0.588,6.494,0.668,7.558c0.093,1.228-0.17,2.323-0.724,2.956c-0.614,0.7-1.977,1.259-3.527,0.831
		c-1.654-0.454-2.418-0.511-3.616-0.47c-1.421,0.049-1.996,0.378-3.274,0.958c-0.158,0.068-0.333,0.167-0.462,0.244
		c0.056,0.227,0.111,0.449,0.162,0.66c1.245-0.627,2.164-1.107,3.6-1.158c1.171-0.039,1.862,0.022,3.403,0.447
		c1.578,0.437,3.324,0.004,4.245-1.048c0.722-0.822,0.942-2.106,0.913-3.163c0.268-0.123,1.653-0.792,1.809-1.414
		c0.162-0.652-0.417-5.982-0.478-6.548c0.009,0,0.02-0.003,0.031-0.003c1.63-0.052,2.973-0.194,3.81-0.319
		c0.037-0.006,3.763-0.721,3.953-1.535c0.008-0.041,0.056-0.302,0.104-0.568c0.059-0.307,0.115-0.625,0.119-0.652
		c0.263-2.109,0.583-4.593,0.832-6.519c0.337-2.601,0.383-3.251,0.383-3.251S36.825,28.065,36.665,27.982 M16.886,19.879
		l1.769-1.914l0.337,0.458l-0.065,1.083c0,0-1.769,0.478-1.771,0.48L16.886,19.879z"/>
</g>
<g id="Layer_4" display="none">
	<polygon display="inline" fill="#333333" points="53.817,37.25 53.817,28.45 52.295,28.45 52.295,26.667 58.004,26.667 
		60.529,36.034 63.175,26.667 68.875,26.667 68.875,28.45 67.279,28.45 67.279,37.25 68.875,37.25 68.875,39.08 63.5,39.08 
		63.5,37.25 64.902,37.25 64.902,28.45 61.727,39.08 59.082,39.08 55.971,28.45 55.971,37.25 57.28,37.25 57.28,39.08 52.295,39.08 
		52.295,37.25 	"/>
	<path display="inline" fill="#333333" d="M76.557,36.323h2.339c-0.21,1.001-0.654,1.751-1.332,2.246
		c-0.677,0.495-1.604,0.743-2.78,0.743c-1.474,0-2.616-0.408-3.431-1.222c-0.813-0.813-1.221-1.954-1.221-3.422
		c0-1.442,0.4-2.578,1.199-3.411c0.798-0.832,1.887-1.248,3.268-1.248c1.411,0,2.499,0.393,3.263,1.18
		c0.764,0.785,1.147,1.909,1.147,3.368c0,0.087-0.003,0.188-0.01,0.303c-0.005,0.114-0.015,0.276-0.027,0.486l-6.294,0.01
		c0,0.694,0.172,1.228,0.515,1.603c0.343,0.373,0.837,0.561,1.48,0.561c0.471,0,0.861-0.099,1.17-0.297
		C76.152,37.025,76.39,36.725,76.557,36.323 M72.695,33.74h3.825v-0.194c0-0.525-0.179-0.954-0.534-1.285s-0.813-0.497-1.369-0.497
		c-0.57,0-1.032,0.182-1.388,0.544C72.874,32.669,72.695,33.147,72.695,33.74"/>
	<path display="inline" fill="#333333" d="M81.575,37.315v-5.366h-1.198v-1.708h3.696v1.597c0.34-0.644,0.735-1.118,1.184-1.425
		c0.449-0.307,0.967-0.459,1.555-0.459c0.136,0,0.284,0.01,0.445,0.033c0.16,0.021,0.353,0.054,0.576,0.097v2.098
		c-0.161-0.031-0.324-0.052-0.492-0.064c-0.167-0.013-0.338-0.019-0.51-0.019c-0.948,0-1.644,0.271-2.089,0.812
		c-0.446,0.542-0.668,1.389-0.668,2.54v1.865h1.253v1.764h-5.004v-1.764H81.575z"/>
	<path display="inline" fill="#333333" d="M98.002,39.079H94.54v-1.196c-0.353,0.481-0.766,0.841-1.24,1.075
		c-0.473,0.237-1.028,0.354-1.666,0.354c-0.94,0-1.698-0.261-2.273-0.784c-0.576-0.523-0.864-1.208-0.864-2.057
		c0-0.94,0.326-1.669,0.979-2.186c0.653-0.518,1.576-0.775,2.771-0.775h2.293v-0.688c0-0.335-0.155-0.607-0.469-0.821
		s-0.727-0.32-1.24-0.32c-0.482,0-0.858,0.11-1.127,0.329c-0.27,0.22-0.42,0.534-0.45,0.942l-2.339,0.01
		c0.073-1.034,0.418-1.785,1.034-2.252c0.615-0.468,1.564-0.701,2.846-0.701c1.436,0,2.479,0.249,3.128,0.743
		c0.65,0.495,0.975,1.288,0.975,2.376v4.188h1.104V39.079z M94.54,35.144c-0.204-0.019-0.4-0.033-0.589-0.043
		c-0.189-0.009-0.367-0.014-0.534-0.014c-0.768,0-1.348,0.103-1.741,0.308c-0.393,0.203-0.589,0.507-0.589,0.909
		c0,0.385,0.114,0.681,0.343,0.886c0.229,0.209,0.557,0.313,0.984,0.313c0.631,0,1.134-0.208,1.509-0.623
		C94.297,36.464,94.503,35.886,94.54,35.144"/>
	<polygon display="inline" fill="#333333" points="99.694,39.079 99.694,37.231 101.309,37.231 101.309,28.431 99.694,28.431 
		99.694,26.667 110.759,26.667 110.759,30.334 108.672,30.334 108.672,28.431 103.956,28.431 103.956,31.875 105.683,31.875 
		105.683,30.186 107.64,30.186 107.64,35.218 105.683,35.218 105.683,33.584 103.956,33.584 103.956,37.231 108.633,37.231 
		108.633,34.994 110.759,34.994 110.759,39.079 	"/>
	<polygon display="inline" fill="#333333" points="111.86,31.949 111.86,30.242 116.771,30.242 116.771,31.949 115.518,31.949 
		117.375,37.065 119.315,31.949 118.061,31.949 118.061,30.242 122.647,30.242 122.647,31.949 121.748,31.949 118.749,39.08 
		115.741,39.08 112.854,31.949 	"/>
	<path display="inline" fill="#333333" d="M130.023,36.323h2.338c-0.209,1.001-0.652,1.751-1.331,2.246
		c-0.678,0.495-1.604,0.743-2.779,0.743c-1.474,0-2.617-0.408-3.43-1.222c-0.815-0.813-1.223-1.954-1.223-3.422
		c0-1.442,0.398-2.578,1.198-3.411c0.798-0.832,1.887-1.248,3.268-1.248c1.411,0,2.499,0.393,3.263,1.18
		c0.765,0.785,1.147,1.909,1.147,3.368c0,0.087-0.003,0.188-0.009,0.303c-0.008,0.114-0.017,0.276-0.028,0.486l-6.295,0.01
		c0,0.694,0.172,1.228,0.515,1.603c0.345,0.373,0.837,0.561,1.481,0.561c0.472,0,0.861-0.099,1.17-0.297
		C129.618,37.025,129.855,36.725,130.023,36.323 M126.161,33.74h3.825v-0.194c0-0.525-0.178-0.954-0.532-1.285
		c-0.357-0.331-0.813-0.497-1.371-0.497c-0.569,0-1.032,0.182-1.389,0.544C126.34,32.669,126.161,33.147,126.161,33.74"/>
	<path display="inline" fill="#333333" d="M133.861,39.079v-1.764h1.198v-5.366h-1.198v-1.708h3.641v1.401
		c0.401-0.563,0.854-0.975,1.359-1.238c0.504-0.264,1.103-0.396,1.797-0.396c1.046,0,1.816,0.274,2.311,0.821
		c0.496,0.549,0.743,1.404,0.743,2.567v3.918h1.18v1.764h-5.031v-1.764h1.345v-3.918c0-0.481-0.135-0.864-0.404-1.142
		c-0.269-0.278-0.635-0.418-1.1-0.418c-0.639,0-1.153,0.212-1.55,0.636c-0.396,0.425-0.595,0.979-0.595,1.667v3.175h1.347v1.764
		H133.861z"/>
	<path display="inline" fill="#333333" d="M151.794,31.986h-2.34v4.697c0,0.285,0.05,0.493,0.148,0.623
		c0.1,0.129,0.253,0.194,0.464,0.194c0.26,0,0.456-0.092,0.584-0.278c0.132-0.186,0.195-0.468,0.195-0.845v-0.241h1.543
		c0.012,0.149,0.021,0.262,0.028,0.343c0.004,0.081,0.009,0.149,0.009,0.204c0,0.848-0.236,1.498-0.71,1.95
		c-0.475,0.453-1.15,0.679-2.029,0.679c-0.946,0-1.641-0.192-2.079-0.572c-0.439-0.38-0.66-0.977-0.66-1.787v-4.967h-1.411v-1.744
		h1.411v-1.755l2.507-0.909v2.665h2.34V31.986z"/>
	<path display="inline" fill="#333333" d="M155.437,39.135h-1.875v-3.193h1.875c0.149,0.52,0.382,0.908,0.697,1.161
		s0.723,0.38,1.225,0.38c0.371,0,0.673-0.082,0.905-0.245c0.232-0.165,0.349-0.374,0.349-0.628c0-0.421-0.694-0.798-2.08-1.132
		c-0.124-0.031-0.214-0.053-0.27-0.064c-1.113-0.267-1.852-0.591-2.213-0.972c-0.362-0.38-0.544-0.956-0.544-1.73
		c0-0.83,0.288-1.487,0.863-1.973c0.574-0.486,1.357-0.729,2.35-0.729c0.52,0,0.974,0.093,1.363,0.278
		c0.391,0.186,0.722,0.468,0.994,0.846v-0.892h1.802v2.85h-1.802c-0.067-0.439-0.264-0.784-0.585-1.034
		c-0.322-0.25-0.731-0.376-1.226-0.376c-0.352,0-0.635,0.078-0.845,0.231c-0.211,0.154-0.315,0.357-0.315,0.604
		c0,0.464,0.737,0.853,2.211,1.169c0.184,0.037,0.331,0.068,0.435,0.093c0.873,0.186,1.502,0.489,1.891,0.91
		c0.385,0.42,0.578,1.009,0.578,1.764c0,0.859-0.287,1.549-0.862,2.065s-1.347,0.776-2.312,0.776c-0.601,0-1.116-0.106-1.545-0.321
		c-0.431-0.214-0.786-0.534-1.064-0.961V39.135z"/>
	<path display="inline" fill="#333333" d="M24.116,19.96l-0.015,0.813l-1.365,0.388c0,0-0.207-0.041-0.209-0.054l1.333-1.442
		L24.116,19.96z M10.018,19.924c1.044-2.595,3.722-6.508,5.938-8.015c0.188-0.128,0.441-0.086,0.581,0.092
		c1.147,1.462,3.407,4.001,5.026,4.694c1.139-0.64,2.527-2.252,2.969-2.069c0.429,0.178-0.245,1.563-1.004,2.875l0.617,0.363
		c0.424,0.25,0.692,0.691,0.717,1.185l0.003,0.064c0.002,0.034,0.022,0.063,0.052,0.077l2.123,0.919
		c0.291,0.11,0.501,0.369,0.553,0.676c0.041,0.241-0.021,0.483-0.164,0.675c0.003,0.004,0.007,0.007,0.009,0.012l0.213,0.308
		c0.166,0.264-0.047,0.637-0.204,0.814c-0.159,0.179-0.493,0.488-0.503,1.245c-0.008,0.523,0.171,1.114,0.549,1.165
		c0.462,0.061,0.608,0.403,0.547,0.657l-0.025,0.138c-0.003,0.042,0.005,0.232,0.007,0.274c0.04,0.19,0.108,0.481,0.014,0.814
		c-0.104,0.369-0.394,0.68-0.736,0.771c-0.279,0.076-0.422,0.103-1.042,0.128c-1.106,0.044-1.665-0.118-2.49-0.439l-0.177-0.414
		c0,0,1.385,0.585,3.48,0.216c0.191-0.034,0.376-0.228,0.429-0.414c0.067-0.241-0.026-0.458-0.042-0.626
		c-0.01-0.104,0.008-0.231,0.029-0.336c0.024-0.121-0.062-0.208-0.236-0.222c-0.468-0.036-1.359-0.202-1.564-0.935
		c-0.061-0.217-0.093-0.795,0.049-1.039c-1.265,0.668-2.11,0.244-2.58-0.086l-0.226-0.397c0,0,0.468,0.113,0.948,0.027
		c0.38-0.068,0.77-0.289,1.043-0.475l0.311-0.238c0.015-0.012,0.031-0.025,0.047-0.035l0.451-0.344l0.779-0.575l0.389-0.298
		c0.177-0.139,0.13-0.418-0.083-0.493l-2.136-0.924c-0.24-0.104-0.399-0.334-0.413-0.595l-0.003-0.066
		c-0.015-0.29-0.172-0.552-0.423-0.699l-0.633-0.373c-0.966,1.392-3.067,3.49-3.067,3.49c-0.06,0.07-0.036,0.14-0.016,0.18
		l1.038,1.091c0.282,0.345,0.642,0.341,0.87,0.323l0.085,0.631l-1.304,0.782c0,0-1.036-0.634-1.08-0.658
		c-0.098-0.056-0.216-0.08-0.338-0.08c-0.293,0-0.542,0.179-0.617,0.46c-0.07,0.264,0.025,0.511,0.203,0.661l1.406,1.387
		c0.029,0.03,0.137,0.157,0.174,0.372l0.001,0.002c0.099,0.877-1.151,1.342-1.151,1.342l-0.42-0.208
		c0.089-0.48,0.36-1.347-1.362-2.138c0,0-1.11-0.482-1.411-0.594c0,0-2.477,2.171-2.792,1.931c-0.315-0.242,0.539-2.703,1.277-3.933
		c-0.827-0.801-3.11-2.146-4.417-2.554C10.049,20.418,9.925,20.155,10.018,19.924 M40.892,21.485l-0.687,2.969l-0.374-0.379
		c0,0,0.28-2.004,0.271-2.083c-0.016-0.13-0.063-0.248-0.133-0.347c-0.107-0.149-0.267-0.254-0.448-0.294
		c0,0-1.247-0.665-1.521-0.738c-0.275-0.072-0.485-0.056-0.739,0.123l-1.225,0.717l-0.047,0.044
		c-0.171,0.261-0.107,0.496-0.097,0.531l0.153,0.559c0,0,0.175,0.334-0.339,0.506c-0.02,0.008-0.04,0.014-0.057,0.021l-4.514,1.094
		c-0.663-0.146-1.495-1.611-1.564-2.48L44.444,6.087c0.839-0.559,3.24,1.577,5.364,4.771c1.869,2.811,2.898,5.499,2.546,6.484
		c0,0-0.004,0.007-0.006,0.011c-0.129,0.286-0.632,0.489-0.943,0.591c-0.021,0.004-0.042,0.011-0.063,0.015h-0.002l-0.149,0.048
		c-0.028,0.007-0.043,0.011-0.043,0.011l0.002,0.002L40.892,21.485z M44.718,7.636l-8.622,9.005l-0.059,0.765l8.706-7.199
		c0.811,1.306,2.086,2.967,3.192,4.113l0.734,0.23C45.926,10.511,44.718,7.636,44.718,7.636 M32.349,46.266
		c-0.157,0.624-0.907,0.902-0.907,0.902l0.23-6.06l0.568-0.038C32.24,41.07,32.505,45.64,32.349,46.266 M20.922,46.818
		c-0.159-1.322-1.821-5.538-2.222-6.588c-0.788-2.066-1.346-3.123-1.287-4.586c0.06-1.497,0.497-2.567,0.906-3.648
		c0.642-1.698,0.104-3.101,0.079-3.261c0.014-0.146,0.128-0.266,0.28-0.276c0.043-0.002,0.084,0.004,0.122,0.019l0.016,0.005
		c0.009,0.004,0.018,0.009,0.027,0.013c0,0,3.186,1.589,6.118,3.421c0.081,0.043,0.165,0.093,0.256,0.147
		c2.837,1.754,5.294,1.459,5.799,1.528l1.968,0.15c0.022,0,0.044,0,0.066,0c1.102,0.473,2.781,1.939,2.781,1.939l0.655,0.041
		c0,0-1.535-1.638-2.414-2.313l1.329-5.608c0.025-0.074,0.178-0.112,0.414-0.122l0.117-1.718l0.02-0.155
		c-0.826-0.777-1.195-1.631-1.195-1.631l0.427-0.075c0.293,0.499,0.697,0.964,1.284,1.373c1.417,0.05,3.365,0.618,3.365,0.618
		l-0.055,0.419c0,0-1.945-0.425-3.29-0.48l-0.111,1.664c1.469,0.107,3.656,0.635,3.623,0.965c0.007,0.09-0.659,5.094-1.121,8.817
		c-0.005,0.048-0.195,1.056-0.201,1.104c-0.059,0.246-1.716,0.83-3.333,1.126c-1.043,0.154-2.192,0.271-3.788,0.295
		c0-0.002-3.955-0.06-6.17-0.777c0.102,0.202,0.183,0.395,0.283,0.598c1.31,0.562,3.108,0.979,4.219,1.181
		c0,0,0.211,5.394,0.293,6.477c0.078,1.052,0.066,2.031-0.547,2.732c-0.7,0.798-2.102,1.246-3.532,0.853
		c-1.429-0.393-2.098-0.453-3.189-0.415c-1.409,0.049-2.764,0.405-3.946,1l-0.211-0.711C19.478,50.442,21.156,48.773,20.922,46.818"
		/>
	<path display="inline" fill="#333333" d="M29.154,29.61c-0.233-0.639-0.084-0.836-0.348-0.89c-0.432-0.091-0.496,0.324-0.754,0.808
		c-0.173-0.048-0.357-0.04-0.521,0.031c-1.375-0.732-2.618-1.185-2.526-0.188c0.098,1.092,1.411,2.716,1.929,2.64
		c0.365-0.056,0.638-0.861,0.836-1.136c0.24,0.072,0.471,0.029,0.652-0.125c0.397,0.093,0.872,0.434,1.119,0.345
		C29.786,31.005,29.399,30.278,29.154,29.61"/>
</g>
<g id="Layer_5">
	<polygon fill="#FBD823" points="52.45,38.693 52.45,29.222 50.811,29.222 50.811,27.305 56.954,27.305 59.672,37.385 
		62.519,27.305 68.653,27.305 68.653,29.222 66.936,29.222 66.936,38.693 68.653,38.693 68.653,40.66 62.869,40.66 62.869,38.693 
		64.377,38.693 64.377,29.222 60.962,40.66 58.113,40.66 54.767,29.222 54.767,38.693 56.175,38.693 56.175,40.66 50.811,40.66 
		50.811,38.693 	"/>
	<path fill="#FBD823" d="M76.919,37.693h2.518c-0.226,1.079-0.705,1.887-1.434,2.418c-0.729,0.533-1.726,0.799-2.992,0.799
		c-1.584,0-2.815-0.438-3.692-1.314c-0.875-0.874-1.313-2.102-1.313-3.681c0-1.55,0.431-2.776,1.29-3.67
		c0.859-0.897,2.031-1.345,3.515-1.345c1.52,0,2.69,0.423,3.513,1.269c0.822,0.846,1.233,2.056,1.233,3.626
		c0,0.094-0.003,0.202-0.009,0.325c-0.007,0.123-0.017,0.299-0.031,0.524l-6.772,0.011c0,0.747,0.185,1.32,0.553,1.723
		c0.371,0.402,0.901,0.605,1.594,0.605c0.507,0,0.925-0.108,1.26-0.321C76.483,38.449,76.74,38.127,76.919,37.693 M72.764,34.916
		h4.116v-0.21c0-0.565-0.192-1.027-0.574-1.383c-0.383-0.356-0.873-0.535-1.473-0.535c-0.613,0-1.111,0.194-1.494,0.585
		C72.956,33.763,72.764,34.277,72.764,34.916"/>
	<path fill="#FBD823" d="M82.319,38.764v-5.775h-1.288V31.15h3.976v1.718c0.365-0.693,0.791-1.204,1.273-1.533
		c0.483-0.33,1.041-0.495,1.674-0.495c0.146,0,0.307,0.011,0.479,0.037c0.173,0.022,0.379,0.056,0.62,0.104v2.256
		c-0.173-0.033-0.35-0.057-0.528-0.069c-0.181-0.012-0.363-0.019-0.55-0.019c-1.02,0-1.769,0.29-2.249,0.872
		c-0.479,0.585-0.719,1.493-0.719,2.734v2.008h1.348v1.896H80.97v-1.896H82.319z"/>
	<path fill="#FBD823" d="M99.998,40.66h-3.727v-1.289c-0.381,0.52-0.825,0.906-1.334,1.159s-1.106,0.38-1.794,0.38
		c-1.013,0-1.828-0.28-2.447-0.844c-0.619-0.562-0.929-1.3-0.929-2.214c0-1.012,0.35-1.795,1.054-2.353
		c0.702-0.555,1.697-0.833,2.98-0.833h2.47v-0.739c0-0.361-0.169-0.654-0.505-0.886c-0.339-0.229-0.781-0.342-1.334-0.342
		c-0.52,0-0.925,0.116-1.214,0.353c-0.29,0.237-0.451,0.574-0.484,1.016l-2.518,0.01c0.08-1.113,0.45-1.921,1.113-2.424
		c0.663-0.502,1.684-0.754,3.062-0.754c1.546,0,2.669,0.267,3.367,0.798c0.699,0.533,1.051,1.388,1.051,2.558v4.508h1.188V40.66z
		 M96.271,36.426c-0.22-0.021-0.432-0.036-0.636-0.045c-0.203-0.011-0.394-0.016-0.574-0.016c-0.825,0-1.451,0.11-1.873,0.329
		c-0.422,0.22-0.635,0.547-0.635,0.979c0,0.413,0.123,0.732,0.37,0.955c0.247,0.224,0.6,0.335,1.06,0.335
		c0.679,0,1.22-0.222,1.623-0.669C96.01,37.848,96.23,37.225,96.271,36.426"/>
	<polygon fill="#FBD823" points="101.816,40.66 101.816,38.673 103.555,38.673 103.555,29.201 101.816,29.201 101.816,27.303 
		113.725,27.303 113.725,31.249 111.478,31.249 111.478,29.201 106.401,29.201 106.401,32.909 108.261,32.909 108.261,31.091 
		110.367,31.091 110.367,36.505 108.261,36.505 108.261,34.747 106.401,34.747 106.401,38.673 111.438,38.673 111.438,36.265 
		113.725,36.265 113.725,40.66 	"/>
	<polygon fill="#FBD823" points="114.906,32.988 114.906,31.15 120.193,31.15 120.193,32.988 118.845,32.988 120.841,38.492 
		122.932,32.988 121.581,32.988 121.581,31.15 126.516,31.15 126.516,32.988 125.548,32.988 122.321,40.66 119.085,40.66 
		115.977,32.988 	"/>
	<path fill="#FBD823" d="M134.455,37.693h2.516c-0.226,1.079-0.705,1.887-1.433,2.418c-0.731,0.533-1.727,0.799-2.993,0.799
		c-1.585,0-2.814-0.438-3.691-1.314c-0.875-0.874-1.314-2.102-1.314-3.681c0-1.55,0.43-2.776,1.29-3.67
		c0.859-0.897,2.031-1.345,3.516-1.345c1.519,0,2.69,0.423,3.513,1.269c0.821,0.846,1.234,2.056,1.234,3.626
		c0,0.094-0.005,0.202-0.011,0.325c-0.007,0.123-0.016,0.299-0.03,0.524l-6.774,0.011c0,0.747,0.187,1.32,0.556,1.723
		c0.371,0.402,0.901,0.605,1.594,0.605c0.505,0,0.925-0.108,1.26-0.321C134.017,38.449,134.273,38.127,134.455,37.693
		 M130.298,34.916h4.116v-0.21c0-0.565-0.192-1.027-0.574-1.383c-0.385-0.356-0.873-0.535-1.473-0.535
		c-0.614,0-1.11,0.194-1.495,0.585C130.49,33.763,130.298,34.277,130.298,34.916"/>
	<path fill="#FBD823" d="M138.583,40.66v-1.896h1.29v-5.775h-1.29V31.15h3.917v1.509c0.433-0.606,0.923-1.052,1.462-1.333
		c0.544-0.283,1.188-0.426,1.936-0.426c1.125,0,1.955,0.295,2.486,0.885c0.533,0.588,0.799,1.51,0.799,2.762v4.217h1.27v1.896
		h-5.413v-1.896h1.447v-4.217c0-0.519-0.145-0.931-0.434-1.229c-0.29-0.301-0.686-0.45-1.185-0.45c-0.688,0-1.242,0.229-1.669,0.686
		c-0.425,0.456-0.638,1.054-0.638,1.793v3.417h1.445v1.896H138.583z"/>
	<path fill="#FBD823" d="M157.881,33.028h-2.519v5.055c0,0.307,0.054,0.53,0.161,0.669c0.106,0.141,0.272,0.212,0.497,0.212
		c0.282,0,0.492-0.102,0.629-0.301c0.143-0.2,0.212-0.503,0.212-0.91v-0.26h1.658c0.014,0.161,0.023,0.283,0.03,0.37
		s0.01,0.161,0.01,0.22c0,0.912-0.254,1.612-0.764,2.099c-0.511,0.485-1.236,0.729-2.183,0.729c-1.02,0-1.764-0.204-2.238-0.614
		c-0.473-0.408-0.71-1.05-0.71-1.924v-5.344h-1.518V31.15h1.518v-1.889l2.697-0.979v2.868h2.519V33.028z"/>
	<path fill="#FBD823" d="M161.799,40.721h-2.016v-3.437h2.016c0.161,0.56,0.41,0.974,0.749,1.247c0.343,0.273,0.78,0.412,1.32,0.412
		c0.399,0,0.725-0.09,0.974-0.266c0.249-0.177,0.375-0.402,0.375-0.675c0-0.452-0.747-0.858-2.236-1.218
		c-0.135-0.035-0.23-0.058-0.292-0.07c-1.198-0.285-1.992-0.635-2.381-1.044c-0.39-0.409-0.587-1.03-0.587-1.864
		c0-0.893,0.312-1.599,0.931-2.123c0.618-0.521,1.464-0.783,2.528-0.783c0.56,0,1.049,0.101,1.469,0.3
		c0.419,0.2,0.775,0.502,1.069,0.909V31.15h1.938v3.066h-1.938c-0.075-0.472-0.285-0.843-0.631-1.113
		c-0.345-0.269-0.785-0.403-1.319-0.403c-0.379,0-0.683,0.082-0.909,0.247c-0.225,0.166-0.338,0.384-0.338,0.651
		c0,0.498,0.792,0.918,2.379,1.257c0.199,0.041,0.355,0.074,0.466,0.1c0.94,0.201,1.619,0.527,2.033,0.98
		c0.418,0.452,0.624,1.087,0.624,1.898c0,0.926-0.309,1.666-0.927,2.224c-0.619,0.556-1.449,0.832-2.487,0.832
		c-0.646,0-1.201-0.113-1.664-0.345c-0.462-0.229-0.844-0.574-1.146-1.032V40.721z"/>
	<polygon fill="#FBD823" points="52.462,38.693 52.462,29.222 50.824,29.222 50.824,27.305 56.967,27.305 59.686,37.385 
		62.531,27.305 68.665,27.305 68.665,29.222 66.947,29.222 66.947,38.693 68.665,38.693 68.665,40.66 62.881,40.66 62.881,38.693 
		64.39,38.693 64.39,29.222 60.974,40.66 58.126,40.66 54.779,29.222 54.779,38.693 56.188,38.693 56.188,40.66 50.824,40.66 
		50.824,38.693 	"/>
	<path fill="#FBD823" d="M76.933,37.693h2.517c-0.225,1.079-0.704,1.887-1.433,2.418c-0.729,0.533-1.727,0.799-2.993,0.799
		c-1.583,0-2.816-0.438-3.691-1.314c-0.875-0.874-1.313-2.102-1.313-3.681c0-1.55,0.428-2.776,1.289-3.67
		c0.858-0.897,2.03-1.345,3.515-1.345c1.52,0,2.69,0.423,3.511,1.269c0.823,0.846,1.235,2.056,1.235,3.626
		c0,0.094-0.004,0.202-0.01,0.325c-0.009,0.123-0.019,0.299-0.031,0.524l-6.772,0.011c0,0.747,0.185,1.32,0.553,1.723
		c0.369,0.402,0.901,0.605,1.594,0.605c0.507,0,0.925-0.108,1.258-0.321C76.496,38.449,76.752,38.127,76.933,37.693 M72.777,34.916
		h4.116v-0.21c0-0.565-0.193-1.027-0.574-1.383c-0.383-0.356-0.875-0.535-1.475-0.535c-0.613,0-1.112,0.194-1.493,0.585
		C72.968,33.763,72.777,34.277,72.777,34.916"/>
	<path fill="#FBD823" d="M82.333,38.764v-5.775h-1.29V31.15h3.977v1.718c0.365-0.693,0.791-1.204,1.273-1.533
		c0.483-0.33,1.042-0.495,1.673-0.495c0.146,0,0.307,0.011,0.48,0.037c0.173,0.022,0.379,0.056,0.619,0.104v2.256
		c-0.174-0.033-0.349-0.057-0.53-0.069c-0.179-0.012-0.362-0.019-0.55-0.019c-1.019,0-1.767,0.29-2.248,0.872
		c-0.479,0.585-0.718,1.493-0.718,2.734v2.008h1.349v1.896h-5.384v-1.896H82.333z"/>
	<path fill="#FBD823" d="M100.009,40.66h-3.726v-1.289c-0.381,0.52-0.825,0.906-1.334,1.159c-0.51,0.253-1.107,0.38-1.794,0.38
		c-1.012,0-1.827-0.28-2.446-0.844c-0.62-0.562-0.931-1.3-0.931-2.214c0-1.012,0.354-1.795,1.056-2.353
		c0.702-0.555,1.694-0.833,2.981-0.833h2.468v-0.739c0-0.361-0.169-0.654-0.505-0.886c-0.337-0.229-0.781-0.342-1.335-0.342
		c-0.518,0-0.923,0.116-1.212,0.353c-0.29,0.237-0.452,0.574-0.484,1.016l-2.518,0.01c0.08-1.113,0.451-1.921,1.113-2.424
		c0.662-0.502,1.683-0.754,3.062-0.754c1.546,0,2.668,0.267,3.367,0.798c0.698,0.533,1.05,1.388,1.05,2.558v4.508h1.188V40.66z
		 M96.283,36.426c-0.221-0.021-0.432-0.036-0.634-0.045c-0.204-0.011-0.396-0.016-0.573-0.016c-0.829,0-1.453,0.11-1.875,0.329
		c-0.423,0.22-0.634,0.547-0.634,0.979c0,0.413,0.123,0.732,0.368,0.955c0.248,0.224,0.601,0.335,1.059,0.335
		c0.681,0,1.221-0.222,1.624-0.669C96.021,37.848,96.244,37.225,96.283,36.426"/>
	<polygon fill="#FBD823" points="101.829,40.66 101.829,38.673 103.567,38.673 103.567,29.201 101.829,29.201 101.829,27.303 
		113.737,27.303 113.737,31.249 111.489,31.249 111.489,29.201 106.413,29.201 106.413,32.909 108.273,32.909 108.273,31.091 
		110.38,31.091 110.38,36.505 108.273,36.505 108.273,34.747 106.413,34.747 106.413,38.673 111.448,38.673 111.448,36.265 
		113.737,36.265 113.737,40.66 	"/>
	<polygon fill="#FBD823" points="114.922,32.988 114.922,31.15 120.206,31.15 120.206,32.988 118.855,32.988 120.856,38.492 
		122.943,32.988 121.594,32.988 121.594,31.15 126.528,31.15 126.528,32.988 125.56,32.988 122.333,40.66 119.096,40.66 
		115.988,32.988 	"/>
	<path fill="#FBD823" d="M134.468,37.693h2.514c-0.225,1.079-0.703,1.887-1.432,2.418c-0.729,0.533-1.728,0.799-2.992,0.799
		c-1.586,0-2.813-0.438-3.689-1.314c-0.878-0.874-1.313-2.102-1.313-3.681c0-1.55,0.427-2.776,1.288-3.67
		c0.857-0.897,2.031-1.345,3.517-1.345c1.518,0,2.687,0.423,3.511,1.269c0.82,0.846,1.232,2.056,1.232,3.626
		c0,0.094-0.002,0.202-0.009,0.325s-0.018,0.299-0.03,0.524l-6.772,0.011c0,0.747,0.185,1.32,0.556,1.723
		c0.367,0.402,0.897,0.605,1.591,0.605c0.505,0,0.928-0.108,1.26-0.321S134.285,38.127,134.468,37.693 M130.311,34.916h4.114v-0.21
		c0-0.565-0.189-1.027-0.574-1.383c-0.382-0.356-0.872-0.535-1.472-0.535c-0.615,0-1.111,0.194-1.495,0.585
		C130.502,33.763,130.311,34.277,130.311,34.916"/>
	<path fill="#FBD823" d="M138.597,40.66v-1.896h1.289v-5.775h-1.289V31.15h3.917v1.509c0.433-0.606,0.92-1.052,1.463-1.333
		c0.544-0.283,1.186-0.426,1.934-0.426c1.124,0,1.954,0.295,2.486,0.885c0.533,0.588,0.798,1.51,0.798,2.762v4.217h1.27v1.896
		h-5.413v-1.896h1.447v-4.217c0-0.519-0.145-0.931-0.435-1.229c-0.289-0.301-0.683-0.45-1.183-0.45
		c-0.688,0-1.243,0.229-1.668,0.686c-0.427,0.456-0.64,1.054-0.64,1.793v3.417h1.449v1.896H138.597z"/>
	<path fill="#FBD823" d="M157.893,33.028h-2.52v5.055c0,0.307,0.056,0.53,0.162,0.669c0.107,0.141,0.273,0.212,0.501,0.212
		c0.279,0,0.488-0.102,0.628-0.301c0.14-0.2,0.208-0.503,0.208-0.91v-0.26h1.661c0.012,0.161,0.021,0.283,0.028,0.37
		s0.012,0.161,0.012,0.22c0,0.912-0.256,1.612-0.767,2.099c-0.51,0.485-1.236,0.729-2.182,0.729c-1.021,0-1.765-0.204-2.239-0.614
		c-0.471-0.408-0.709-1.05-0.709-1.924v-5.344h-1.519V31.15h1.519v-1.889l2.696-0.979v2.868h2.52V33.028z"/>
	<path fill="#FBD823" d="M161.813,40.721h-2.019v-3.437h2.019c0.159,0.56,0.41,0.974,0.75,1.247
		c0.338,0.273,0.778,0.412,1.318,0.412c0.398,0,0.723-0.09,0.973-0.266c0.251-0.177,0.375-0.402,0.375-0.675
		c0-0.452-0.746-0.858-2.237-1.218c-0.134-0.035-0.23-0.058-0.289-0.07c-1.2-0.285-1.995-0.635-2.385-1.044
		c-0.388-0.409-0.582-1.03-0.582-1.864c0-0.893,0.308-1.599,0.927-2.123c0.618-0.521,1.464-0.783,2.528-0.783
		c0.56,0,1.051,0.101,1.469,0.3c0.419,0.2,0.777,0.502,1.068,0.909V31.15h1.939v3.066h-1.939c-0.073-0.472-0.281-0.843-0.63-1.113
		c-0.344-0.269-0.785-0.403-1.316-0.403c-0.383,0-0.687,0.082-0.911,0.247c-0.225,0.166-0.339,0.384-0.339,0.651
		c0,0.498,0.792,0.918,2.379,1.257c0.199,0.041,0.355,0.074,0.468,0.1c0.938,0.201,1.616,0.527,2.034,0.98
		c0.415,0.452,0.624,1.087,0.624,1.898c0,0.926-0.312,1.666-0.93,2.224c-0.619,0.556-1.449,0.832-2.488,0.832
		c-0.646,0-1.2-0.113-1.662-0.345c-0.463-0.229-0.846-0.574-1.144-1.032V40.721z"/>
	<path fill="#FBD823" d="M32.747,15.326v0.715l10.002-7.563c0.895,1.439,2.302,3.272,3.522,4.536l0.809,0.254
		c-3.026-4.455-4.492-7.497-4.492-7.497L32.747,15.326z"/>
	<path fill="#FBD823" d="M48.132,8.021c-1.149-1.728-2.41-3.237-3.548-4.251c-1.287-1.145-2.25-1.517-2.86-1.111L25.147,20.078
		l0.015,0.157c0.081,1.027,1.03,2.842,2.002,3.055l0.081,0.018l3.998-0.97v0.012l0.146-0.03c0.605,1.004,1.057,1.525,1.715,1.982
		c1.232,0.044,2.823,0.437,3.472,0.611l0.498-0.905c0.329-0.599,0.5-1.273,0.497-1.956l-0.009-1.578l11.859-4.017l0.287-0.086
		c0.646-0.21,1.058-0.477,1.235-0.805l0.037-0.076C51.416,14.267,50.245,11.195,48.132,8.021 M50.315,15.236
		c-0.037,0.083-0.253,0.274-0.82,0.458L37.219,19.84l-2.241-1.175l-0.075-0.029c-0.428-0.114-0.761-0.058-1.084,0.171l-1.351,0.792
		l-0.17,0.161c-0.275,0.42-0.172,0.811-0.151,0.872l0.19,0.655c0,0.001-0.03,0.045-0.202,0.104l-4.886,1.186
		c-0.497-0.198-1.224-1.403-1.362-2.248L42.142,3.234c0.203-0.091,0.816,0.037,1.97,1.063c1.095,0.974,2.313,2.436,3.431,4.113
		C49.666,11.604,50.618,14.396,50.315,15.236"/>
	<path fill="#FBD823" d="M36.742,27.482l0.212-1.598c0,0-2.348-0.795-4.212-0.754l-0.292,1.548
		c-0.175,0.014-0.676,0.059-0.676,0.059l-1.638,6.278c-0.02,0.077-0.007,0.155,0.024,0.227c-1.227,0-3.333-0.049-4.424-0.354
		c-0.979-1.395-1.696-2.249-2.213-2.73c-0.137,0.116-0.319,0.324-0.817,0.172c-0.11,0.326-0.379,1.02-0.736,1.184
		c-0.274,0.144-0.87-0.219-1.448-0.948c-0.051-0.065-0.088-0.113-0.088-0.113l0.001-0.003c-0.425-0.578-0.791-1.289-0.843-1.868
		c-0.04-0.454,0.168-0.636,0.535-0.636c0.37,0,0.902,0.187,1.5,0.463l-0.454-1.273c0,0-1.833-0.158-2.538-0.565l-0.188-0.718
		c0,0,1.733,0.772,4.364,0.33c0.241-0.041,0.474-0.267,0.541-0.484c0.087-0.28-0.03-0.534-0.049-0.73
		c-0.013-0.12,0.009-0.268,0.038-0.392c0.031-0.139-0.075-0.24-0.293-0.255c-0.587-0.038-1.705-0.227-1.957-1.079
		c-0.074-0.25-0.113-0.923,0.067-1.208c-1.589,0.786-2.597,0.448-3.186,0.066l-0.33-0.612c0,0,0.587,0.129,1.189,0.026
		c0.478-0.082,0.966-0.341,1.311-0.56l0.392-0.279c0.019-0.014,0.039-0.028,0.059-0.04l0.566-0.403l0.773-0.465l0.489-0.349
		c0.222-0.164,0.165-0.488-0.102-0.574l-2.464-1.272c-0.299-0.119-0.498-0.387-0.515-0.69l-0.003-0.076
		c-0.016-0.337-0.214-0.642-0.525-0.811l-0.587-0.318l0.575-1.057l-0.002-0.003c0.911-1.691,0.865-2.326,0.759-2.638
		c-0.056-0.166-0.172-0.291-0.325-0.356c-1.128-0.476-2.765,1.495-3.868,1.939c-1.583-0.771-3.277-2.827-4.731-4.684
		c-0.268-0.342-0.76-0.419-1.12-0.175c-2.523,1.716-5.498,6.049-6.694,9.021c-0.086,0.213-0.08,0.457,0.02,0.665
		c0.098,0.208,0.281,0.367,0.501,0.435c1.352,0.423,3.564,1.728,4.543,2.561c-0.594,1.113-1.996,3.962-1.18,4.555
		c0.203,0.148,0.98,0.449,3.431-1.978c0.214-0.23,0.452-0.486,0.452-0.486l-0.498-0.482c-0.921,0.807-2.609,2.392-2.882,2.239
		c-0.275-0.153,0.737-2.59,1.428-3.738l-0.057-0.438c-0.993-0.959-3.575-2.455-5.026-2.909c-0.042-0.013-0.063-0.043-0.071-0.062
		c-0.008-0.018-0.021-0.054-0.003-0.099c1.133-2.814,4.054-7.08,6.436-8.7c0.054-0.034,0.124-0.024,0.164,0.028
		c0.563,0.718,2.961,4.024,5.171,4.97l0.313-0.017c1.31-0.563,2.818-2.287,3.265-2.017c0.187,0.114-0.032,0.976-0.989,2.648
		c-0.145,0.242-0.49,0.761-0.542,0.843c-1.042,1.422-3.36,3.762-3.587,3.99c0,0,1.112,1.072,1.138,1.099
		c0.295,0.362,0.734,0.508,1.153,0.472l0.148,0.568l-1.058,0.634c-0.327-0.2-0.985-0.604-1.024-0.625
		c-0.156-0.085-0.6-0.244-0.902,0.04c-0.301,0.284-0.229,0.766,0.066,1.014l1.395,1.463c0.451,0.504,0.383,1.73-0.783,2.093
		c-0.185,0.074-0.403,0.09-0.647,0.021c-0.163-0.045-0.307-0.105-0.44-0.184c-0.003,0.021-0.072,0.352-0.072,0.352
		s0.156,1.282,0.16,1.313c0.003,0.028,0.016,0.08,0.038,0.152c0.119,0.423,0.061,1.712-0.525,3.264l-0.077,0.203
		c-0.432,1.139-0.879,2.315-0.944,3.931c-0.056,1.398,0.365,2.462,1.002,4.072c0.137,0.347,0.283,0.718,0.441,1.126l0.169,0.445
		c0.577,1.496,2.237,4.746,2.389,6.016c0.162,1.359-0.67,2.673-1.484,3.529c0.052,0.206,0.124,0.486,0.207,0.81
		c0.921-0.847,2.211-2.497,1.98-4.423c-0.162-1.357-1.791-4.524-2.431-6.187l-0.168-0.442c-0.158-0.41-0.306-0.786-0.444-1.134
		c-0.626-1.582-1.003-2.536-0.954-3.783c0.061-1.501,0.488-2.624,0.9-3.709l0.076-0.205c0.436-1.153,0.904-2.379,0.562-3.64
		c0.454,0.227,3.699,1.876,6.683,3.74c0.083,0.045,0.172,0.097,0.267,0.154c3.921,2.388,9.519,2.097,10.404,2.034
		c0.898,0.819,1.942,1.929,1.956,1.941l0.279-0.261c-0.066-0.07-1.298-1.856-2.288-2.669l1.616-6.214
		c1.128,0.011,3.188,0.476,4.181,0.831c-0.104,0.773-0.265,2.319-0.408,3.426c-0.249,1.934-0.571,4.422-0.834,6.533
		c-0.006,0.044-0.061,0.335-0.113,0.618c-0.037,0.198-0.072,0.396-0.091,0.497c-0.299,0.212-1.727,0.737-3.396,1.041
		c-0.908,0.137-2.196,0.295-4.13,0.324c0,0-4.758,0.018-6.911-0.681l0.19,0.51c1.373,0.604,2.904,0.905,4.394,1.014
		c0.104,1.239,0.589,6.509,0.669,7.575c0.093,1.23-0.172,2.329-0.727,2.965c-0.614,0.699-1.981,1.26-3.535,0.832
		c-1.657-0.455-2.422-0.513-3.624-0.471c-1.424,0.048-2.001,0.378-3.281,0.959c-0.159,0.068-0.334,0.168-0.463,0.246
		c0.057,0.227,0.111,0.449,0.163,0.661c1.247-0.629,2.169-1.109,3.605-1.159c1.175-0.041,1.867,0.021,3.412,0.444
		c1.583,0.439,3.333,0.006,4.255-1.048c0.724-0.826,0.944-2.11,0.916-3.17c0.266-0.123,1.657-0.797,1.812-1.42
		c0.163-0.652-0.417-5.994-0.48-6.563c0.011,0,0.022-0.002,0.032-0.003c1.633-0.05,2.98-0.193,3.817-0.317
		c0.038-0.007,3.773-0.724,3.964-1.539c0.007-0.04,0.056-0.302,0.104-0.571c0.059-0.308,0.116-0.624,0.119-0.653
		c0.262-2.113,0.584-4.602,0.835-6.533c0.335-2.606,0.383-3.258,0.383-3.258S36.901,27.565,36.742,27.482 M16.917,19.36l1.774-1.919
		l0.339,0.46l-0.066,1.086c0,0-1.774,0.478-1.776,0.479L16.917,19.36z"/>
</g>
</svg>
