<svg xmlns="http://www.w3.org/2000/svg" viewBox="0 0 896 1111" enable-background="new 0 0 896 1111">
<style type="text/css">
@import url(http://fonts.googleapis.com/css?family=Roboto:400,300,500,700,400italic,300italic,500italic,700italic);

.st0{fill:none;stroke:#FABE1E;stroke-width:4;stroke-miterlimit:10;} .st1{fill:none;stroke:#93589F;stroke-width:4;stroke-miterlimit:10;} .st2{fill:none;stroke:#000000;stroke-width:4;stroke-linecap:round;stroke-linejoin:round;stroke-miterlimit:10;} .st3{fill:none;stroke:#EA4F49;stroke-width:4;stroke-linecap:round;stroke-linejoin:round;stroke-miterlimit:10;} .st4{fill:none;stroke:#EA4F49;stroke-width:4;stroke-linejoin:round;stroke-miterlimit:10;} .st5{fill:none;stroke:#E8408F;stroke-width:4;stroke-linecap:round;stroke-linejoin:round;stroke-miterlimit:10;} .st6{fill:#424242;} .st7{font-family:"Roboto"; font-weight:300;  font-style:italic } .st8{font-size:12px; font-weight:300;  font-style:italic} .st9{font-family:"Roboto"; font-weight:bold; font-size:20px;} .st10{font-size:14px;} .st11{fill:#534F4E;} .st12{font-family:"Roboto" } .st13{font-size:22px;} .st14{fill:#E6408F;} .st15{font-size:20px} .st16{font-family:"Roboto"} .st17{fill:#EA4F49;} .st18{font-size:20px;} .st19{fill:#EAA814;} .st20{fill:#FABE1E;} .st21{fill:#419542;} .st22{fill:#435FA9;} .st23{fill:none;stroke:#435FA9;stroke-width:4;stroke-miterlimit:10;} .st24{fill:#4460AA;} .st25{fill:none;stroke:#419542;stroke-width:4;stroke-miterlimit:10;} .st26{fill:#93589F;} .st27{fill:#FAB400;} .st28{fill:#E5443F;}
</style>
<path class="st0" d="M240.2 317.6h503c44.3 0 80.3 23.2 80.3 67.5M73.7 237.3c0 44.3 35.9 80.3 80.3 80.3h36.4"/>
<path class="st1" d="M823.6 705.5c0-44.3-35.9-66.8-80.3-66.8H153.9c-44.3 0-80.3-35.9-80.3-80.3"/>
<path class="st2" d="M743.3 478.1"/>
<path class="st3" d="M823.6 385.1"/>
<path class="st4" d="M450.1 92.1V157H153.9c-44.3 0-80.3 35.9-80.3 80.3"/>
<path class="st5" d="M450.1 1024.7v-64.9H153.9c-44.3 0-80.3-35.9-80.3-80.3"/>
<text transform="translate(464.978 122.014)">
  <tspan x="0" y="0" class="st6 st7 st8">Founded by</tspan>
  <tspan x="0" y="18" class="st6 st9 st10">Naidu Darapaneni</tspan>
</text>
<text transform="translate(325.125 43.719)" class="st11 st12 st13">THIS IS HOW WE STARTED</text>
<text transform="translate(303.633 1068.391)">
  <tspan x="0" y="0" class="st14 st9 st15">We will be continue</tspan>
  <tspan x="176.5" y="0" class="st14 st9 st15">growing with</tspan>
  <tspan x="-89.4" y="22.1" class="st14 st9 st15">reliability and</tspan>
  <tspan x="34.7" y="22.1" class="st14 st9 st15">professi</tspan>
  <tspan x="106.7" y="22.1" class="st14 st9 st15">o</tspan>
  <tspan x="117.4" y="22.1" class="st14 st9 st15">nalism in the Events Industry.</tspan>
</text>
<text transform="translate(375.27 211.654)">
  <tspan x="0" y="0" class="st6 st9 st15">4</tspan>
  <tspan x="-27.6" y="12.3" class="st6 st16 st8">People Joined</tspan>
</text>
<text transform="translate(108.143 247.095)">
  <tspan x="0" y="0" class="st6 st9 st15">10</tspan>
  <tspan x="-22" y="12.3" class="st6 st16 st8">People Joined</tspan>
</text>
<text transform="translate(426.527 71.573)" class="st17 st9 st18">2006</text>
<text transform="translate(198.43 349.506)" class="st6 st9 st15">230</text>
<text transform="translate(192.795 301.008)" class="st19 st9 st15">2008</text>
<text transform="translate(453.868 303.106)" class="st19 st9 st15">2009</text>
<text transform="translate(8.195 247.095)" class="st19 st9 st15">2007</text>
<circle class="st20" cx="73.7" cy="237.3" r="11.1"/>
<circle class="st17" cx="380.9" cy="157" r="7.4"/>
<circle class="st20" cx="476.4" cy="317.6" r="11.1"/>
<text transform="translate(331.107 461.441)" class="st21 st9 st15">2012</text>
<text transform="translate(601.219 461.441)" class="st21 st9 st15">2011</text>
<text transform="translate(847.946 402.463)" class="st21 st9 st15">2010</text>
<text transform="translate(771.364 402.463)" class="st6 st9 st15">40</text>
<text transform="translate(425.091 346.536)" class="st6 st16 st8">1K Facebook Follows</text>
<text transform="translate(179.637 366.536)">
  <tspan x="0" y="0" class="st6 st16 st8">Tickets booked</tspan>
  <tspan x="18.4" y="12.3" class="st6 st16 st8">per day</tspan>
</text>
<text transform="translate(725.158 739.787)">
  <tspan x="0" y="0" class="st6 st16 st8">Tickets booked</tspan>
  <tspan x="18.4" y="10" class="st6 st16 st8">per day</tspan>
</text>
<text transform="translate(765.469 415.969)">
  <tspan x="0" y="0" class="st6 st16 st8">Events</tspan>
  <tspan x="-11.1" y="12.3" class="st6 st16 st8">Showcased</tspan>
</text>
<text transform="translate(743.947 727.263)" class="st6 st9 st15">500</text>
<text transform="translate(93.831 904.608)">
  <tspan x="0" y="0" class="st6 st9 st15">50+</tspan>
  <tspan x="0" y="14" class="st6 st16 st8">Employee’s we are expecting</tspan>
</text>
<text transform="translate(330.728 511.959)">
  <tspan x="0" y="0" class="st6 st9 st15">1.5 K</tspan>
  <tspan x="-17.8" y="15" class="st6 st16 st8">Twitter Followers</tspan>
</text>
<circle class="st21" cx="353.6" cy="477.8" r="11.1"/>
<circle class="st21" cx="623.8" cy="477.8" r="11.1"/>
<text transform="translate(843.461 727.263)" class="st22 st9 st15">2014</text>
<path class="st23" d="M73.7 879.5c0-44.3 35.9-80.3 80.3-80.3h589.3c44.3 0 80.3-20.5 80.3-64.8"/>
<text transform="translate(13.464 884.138)" class="st24 st9 st15">2015</text>
<circle class="st24" cx="73.2" cy="879.5" r="11.1"/>
<path class="st25" d="M73.7 558.4c0-44.3 35.9-80.3 80.3-80.3h589.3c44.3 0 80.3-23.4 80.3-67.8"/>
<text transform="translate(13.464 566.716)" class="st26 st9 st15">2013</text>
<circle class="st26" cx="73.7" cy="558.4" r="11.1"/>
<path class="st17" d="M367.9 183.7c-.1-2.8-2.6-5.1-5.5-5.1s-5.4 2.3-5.5 5.1v5.6h11v-5.6zm-5.5-12.3c1.7 0 3 1.4 3 3 0 1.7-1.4 3-3 3s-3-1.4-3-3 1.4-3 3-3zM380.3 183.7c-.1-2.8-2.6-5.1-5.5-5.1s-5.4 2.3-5.5 5.1v5.6h11v-5.6zm-5.5-12.3c1.7 0 3 1.4 3 3 0 1.7-1.4 3-3 3s-3-1.4-3-3 1.3-3 3-3zM392.6 183.7c-.1-2.8-2.6-5.1-5.5-5.1s-5.4 2.3-5.5 5.1v5.6h11v-5.6zm-5.5-12.3c1.7 0 3 1.4 3 3 0 1.7-1.4 3-3 3s-3-1.4-3-3 1.3-3 3-3zM404.9 183.7c-.1-2.8-2.6-5.1-5.5-5.1s-5.4 2.3-5.5 5.1v5.6h11v-5.6zm-5.5-12.3c1.7 0 3 1.4 3 3 0 1.7-1.4 3-3 3s-3-1.4-3-3c-.1-1.6 1.3-3 3-3z"/>
<path class="st20" d="M108.9 220.6c-.1-2.8-2.6-5.1-5.5-5.1s-5.4 2.3-5.5 5.1v5.6h11v-5.6zm-5.5-12.3c1.7 0 3 1.4 3 3 0 1.7-1.4 3-3 3s-3-1.4-3-3c-.1-1.6 1.3-3 3-3zM121.2 220.6c-.1-2.8-2.6-5.1-5.5-5.1s-5.4 2.3-5.5 5.1v5.6h11v-5.6zm-5.5-12.3c1.7 0 3 1.4 3 3 0 1.7-1.4 3-3 3s-3-1.4-3-3 1.4-3 3-3zM133.5 220.6c-.1-2.8-2.6-5.1-5.5-5.1s-5.4 2.3-5.5 5.1v5.6h11v-5.6zm-5.5-12.3c1.7 0 3 1.4 3 3 0 1.7-1.4 3-3 3-1.7 0-3-1.4-3-3s1.3-3 3-3zM145.8 220.6c-.1-2.8-2.6-5.1-5.5-5.1s-5.4 2.3-5.5 5.1v5.6h11v-5.6zm-5.5-12.3c1.7 0 3 1.4 3 3 0 1.7-1.4 3-3 3-1.7 0-3-1.4-3-3s1.3-3 3-3z"/>
<text transform="translate(608.621 532.832)">
  <tspan x="0" y="0" class="st6 st9 st15">30</tspan>
  <tspan x="-22" y="15" class="st6 st16 st8">People Joined</tspan>
</text>
<path class="st21" d="M609.3 506.4c-.1-2.8-2.6-5.1-5.5-5.1s-5.4 2.3-5.5 5.1v5.6h11v-5.6zm-5.5-12.3c1.7 0 3 1.4 3 3 0 1.7-1.4 3-3 3-1.7 0-3-1.4-3-3 0-1.7 1.4-3 3-3zM621.7 506.4c-.1-2.8-2.6-5.1-5.5-5.1s-5.4 2.3-5.5 5.1v5.6h11v-5.6zm-5.5-12.3c1.7 0 3 1.4 3 3 0 1.7-1.4 3-3 3-1.7 0-3-1.4-3-3 0-1.7 1.3-3 3-3zM634 506.4c-.1-2.8-2.6-5.1-5.5-5.1s-5.4 2.3-5.5 5.1v5.6h11v-5.6zm-5.5-12.3c1.7 0 3 1.4 3 3 0 1.7-1.4 3-3 3-1.7 0-3-1.4-3-3 0-1.7 1.3-3 3-3zM646.3 506.4c-.1-2.8-2.6-5.1-5.5-5.1s-5.4 2.3-5.5 5.1v5.6h11v-5.6zm-5.5-12.3c1.7 0 3 1.4 3 3 0 1.7-1.4 3-3 3s-3-1.4-3-3c-.1-1.7 1.3-3 3-3z"/>
<path class="st24" d="M99.3 878.5c-.1-2.8-2.6-5.1-5.5-5.1s-5.4 2.3-5.5 5.1v5.6h11v-5.6zm-5.5-12.2c1.7 0 3 1.4 3 3 0 1.7-1.4 3-3 3s-3-1.4-3-3c0-1.7 1.4-3 3-3zM111.7 878.5c-.1-2.8-2.6-5.1-5.5-5.1s-5.4 2.3-5.5 5.1v5.6h11v-5.6zm-5.5-12.2c1.7 0 3 1.4 3 3 0 1.7-1.4 3-3 3s-3-1.4-3-3c0-1.7 1.3-3 3-3zM124 878.5c-.1-2.8-2.6-5.1-5.5-5.1s-5.4 2.3-5.5 5.1v5.6h11v-5.6zm-5.5-12.2c1.7 0 3 1.4 3 3 0 1.7-1.4 3-3 3s-3-1.4-3-3c0-1.7 1.3-3 3-3zM136.3 878.5c-.1-2.8-2.6-5.1-5.5-5.1s-5.4 2.3-5.5 5.1v5.6h11v-5.6zm-5.5-12.2c1.7 0 3 1.4 3 3 0 1.7-1.4 3-3 3-1.7 0-3-1.4-3-3-.1-1.7 1.3-3 3-3z"/>
<text transform="translate(116.339 566.716)">
  <tspan x="0" y="0" class="st6 st9 st15">55</tspan>
  <tspan x="-22" y="15" class="st6 st16 st8">People Joined</tspan>
</text>
<path class="st21" d="M115.2 540.2c-.1-2.8-2.6-5.1-5.5-5.1s-5.4 2.3-5.5 5.1v5.6h11v-5.6zm-5.5-12.2c1.7 0 3 1.4 3 3 0 1.7-1.4 3-3 3s-3-1.4-3-3c0-1.7 1.4-3 3-3zM127.6 540.2c-.1-2.8-2.6-5.1-5.5-5.1s-5.4 2.3-5.5 5.1v5.6h11v-5.6zm-5.5-12.2c1.7 0 3 1.4 3 3 0 1.7-1.4 3-3 3s-3-1.4-3-3c0-1.7 1.3-3 3-3zM139.9 540.2c-.1-2.8-2.6-5.1-5.5-5.1s-5.4 2.3-5.5 5.1v5.6h11v-5.6zm-5.5-12.2c1.7 0 3 1.4 3 3 0 1.7-1.4 3-3 3-1.7 0-3-1.4-3-3 0-1.7 1.3-3 3-3zM152.2 540.2c-.1-2.8-2.6-5.1-5.5-5.1s-5.4 2.3-5.5 5.1v5.6h11v-5.6zm-5.5-12.2c1.7 0 3 1.4 3 3 0 1.7-1.4 3-3 3-1.7 0-3-1.4-3-3-.1-1.7 1.3-3 3-3z"/>
<path class="st5" d="M459.6 1024.9l-9.6 13.4-8.9-13.5"/>
<path class="st27" d="M230.6 303.6l-.2-.5-35.9 11.8.2.5c.3-.1.5.1.6.3.1.3-.1.5-.3.6l.3.8c.3-.1.5.1.6.3s-.1.5-.3.6l.3.8c.3-.1.5.1.6.3s-.1.5-.3.6l.3.8c1.6-.5 3.3.3 3.9 1.9.5 1.6-.3 3.3-1.9 3.9l.3.8c.3-.1.5.1.6.3.1.2-.1.5-.3.6l.3.8c.3-.1.5.1.6.3.1.2-.1.5-.3.6l.3.8c.3-.1.5.1.6.3.1.2-.1.5-.3.6l.2.5 35.9-11.8-.2-.5c-.3.1-.5-.1-.6-.3-.1-.3.1-.5.3-.6l-.3-.8c-.3.1-.5-.1-.6-.3-.1-.3.1-.5.3-.6l-.3-.8c-.3.1-.5-.1-.6-.3-.1-.3.1-.5.3-.6l-.3-.8c-1.6.5-3.3-.3-3.9-1.9-.5-1.6.3-3.3 1.9-3.9l-.3-.8c-.3.1-.5-.1-.6-.3-.1-.3.1-.5.3-.6l-.3-.8c-.3.1-.5-.1-.6-.3s.1-.5.3-.6l-.3-.8c-.3.1-.5-.1-.6-.3-.1-.2.1-.5.3-.6z"/>
<path class="st21" d="M838.8 383.6l-.2-.5-35.9 11.8.2.5c.3-.1.5.1.6.3s-.1.5-.3.6l.3.8c.3-.1.5.1.6.3.1.3-.1.5-.3.6l.3.8c.3-.1.5.1.6.3s-.1.5-.3.6l.3.8c1.6-.5 3.3.3 3.9 1.9.5 1.6-.3 3.3-1.9 3.9l.3.8c.3-.1.5.1.6.3.1.2-.1.5-.3.6l.3.8c.3-.1.5.1.6.3.1.2-.1.5-.3.6l.3.8c.3-.1.5.1.6.3.1.2-.1.5-.3.6l.2.5 35.9-11.8-.2-.5c-.3.1-.5-.1-.6-.3-.1-.3.1-.5.3-.6l-.3-.8c-.3.1-.5-.1-.6-.3-.1-.3.1-.5.3-.6l-.3-.8c-.3.1-.5-.1-.6-.3-.1-.3.1-.5.3-.6l-.3-.8c-1.6.5-3.3-.3-3.9-1.9-.5-1.6.3-3.3 1.9-3.9l-.3-.8c-.3.1-.5-.1-.6-.3-.1-.3.1-.5.3-.6l-.3-.8c-.3.1-.5-.1-.6-.3s.1-.5.3-.6l-.3-.8c-.3.1-.5-.1-.6-.3-.1-.3.1-.6.3-.6z"/>
<path class="st24" d="M835.2 706l-.2-.5-35.9 11.8.2.5c.3-.1.5.1.6.3s-.1.5-.3.6l.3.8c.3-.1.5.1.6.3.1.3-.1.5-.3.6l.3.8c.3-.1.5.1.6.3s-.1.5-.3.6l.3.8c1.6-.5 3.3.3 3.9 1.9s-.3 3.3-1.9 3.9l.3.8c.3-.1.5.1.6.3.1.2-.1.5-.3.6l.3.8c.3-.1.5.1.6.3.1.2-.1.5-.3.6l.3.8c.3-.1.5.1.6.3.1.2-.1.5-.3.6l.2.5 35.9-11.8-.2-.5c-.3.1-.5-.1-.6-.3-.1-.3.1-.5.3-.6l-.3-.8c-.3.1-.5-.1-.6-.3-.1-.3.1-.5.3-.6l-.3-.8c-.3.1-.5-.1-.6-.3-.1-.3.1-.5.3-.6l-.3-.8c-1.6.5-3.3-.3-3.9-1.9-.5-1.6.3-3.3 1.9-3.9l-.3-.8c-.3.1-.5-.1-.6-.3-.1-.3.1-.5.3-.6l-.3-.8c-.3.1-.5-.1-.6-.3s.1-.5.3-.6l-.3-.8c-.3.1-.5-.1-.6-.3s0-.5.3-.6z"/>
<path class="st28" d="M450.4 80.8L453 89c0 .1.1.2.2.2h8.6c.2 0 .3.3.1.4l-7 5.1c-.1.1-.1.2-.1.3l2.7 8.2c.1.2-.2.4-.4.3l-7-5.1c-.1-.1-.2-.1-.3 0l-7 5.1c-.2.1-.5 0-.4-.3l2.7-8.2c0-.1 0-.2-.1-.3l-7-5.1c-.2-.1-.1-.4.1-.4h8.6c.1 0 .2-.1.2-.2l2.7-8.2c.4-.2.7-.2.8 0z"/>
</svg>