<svg xmlns="http://www.w3.org/2000/svg" viewBox="0 0 318 958.4" enable-background="new 0 0 318 958.4">
<style type="text/css">
@import url(http://fonts.googleapis.com/css?family=Roboto:400,300,500,700,400italic,300italic,500italic,700italic);

.st0{fill:#E5443F;} .st1{font-family:"Roboto"} .st2{font-size:18px;} .st3{fill:#FAB400;} .st4{fill:#3B9036;} .st5{fill:#4558A2;} .st6{fill:#424242;} .st7{font-family:"Roboto"; font-weight:300;} .st8{font-size:14px;} .st9{font-size:12px;} .st10{fill:none;stroke:#E5443F;stroke-width:3;stroke-miterlimit:10;} .st11{fill:#E44442;} .st12{fill:none;stroke:#FAB400;stroke-width:3;stroke-miterlimit:10;} .st13{fill:none;stroke:#3B9036;stroke-width:3;stroke-miterlimit:10;} .st14{fill:none;stroke:#4558A2;stroke-width:3;stroke-miterlimit:10;} .st15{fill:none;stroke:#BD358B;stroke-width:3;stroke-miterlimit:10;} .st16{fill:#BD358B;}
</style>
<text transform="translate(7.229 23.962)" class="st0 st1 st2">2006</text>
<text transform="translate(7.229 193.069)" class="st3 st1 st2">2007</text>
<text transform="translate(7.229 276.011)" class="st3 st1 st2">2007</text>
<text transform="translate(7.229 356.944)" class="st3 st1 st2">2007</text>
<text transform="translate(7.229 440.261)" class="st4 st1 st2">2007</text>
<text transform="translate(7.229 521.501)" class="st4 st1 st2">2007</text>
<text transform="translate(7.229 606.092)" class="st4 st1 st2">2007</text>
<text transform="translate(7.229 692.998)" class="st4 st1 st2">2007</text>
<text transform="translate(7.229 776.512)" class="st5 st1 st2">2007</text>
<text transform="translate(7.229 860.793)" class="st5 st1 st2">2007</text>
<text transform="translate(137.165 20.54)" class="st6 st7 st8">Founded by</text>
<text transform="translate(137.332 38.345)" class="st6 st1 st8">Naidu Darapaneni</text>
<text transform="translate(137.199 191.9)">
  <tspan x="0" y="0" class="st6 st1 st8">10</tspan>
  <tspan x="19.3" y="0" class="st6 st7 st8">People Joined</tspan>
</text>
<text transform="translate(136.977 274.842)">
  <tspan x="0" y="0" class="st6 st1 st8">230</tspan>
  <tspan x="27.1" y="0" class="st6 st7 st8">Tickets booked per day</tspan>
</text>
<text transform="translate(137.045 355.776)">
  <tspan x="0" y="0" class="st6 st1 st8">1k</tspan>
  <tspan x="18.5" y="0" class="st6 st7 st8">Facebook Followers</tspan>
</text>
<text transform="translate(137.007 439.092)">
  <tspan x="0" y="0" class="st6 st1 st8">40</tspan>
  <tspan x="19.3" y="0" class="st6 st7 st8">Events showcased</tspan>
</text>
<text transform="translate(137.199 520.332)">
  <tspan x="0" y="0" class="st6 st1 st8">30</tspan>
  <tspan x="19.3" y="0" class="st6 st7 st8">People Joined</tspan>
</text>
<text transform="translate(136.754 604.923)">
  <tspan x="0" y="0" class="st6 st1 st8">1.5k</tspan>
  <tspan x="30.2" y="0" class="st6 st7 st8">Twitter Followers</tspan>
</text>
<text transform="translate(137.203 691.829)">
  <tspan x="0" y="0" class="st6 st1 st8">55</tspan>
  <tspan x="19.2" y="0" class="st6 st7 st8">People Joined</tspan>
</text>
<text transform="translate(136.973 775.343)">
  <tspan x="0" y="0" class="st6 st1 st8">500</tspan>
  <tspan x="27.1" y="0" class="st6 st7 st8">Tickets booked per day</tspan>
</text>
<text transform="translate(137.137 859.624)">
  <tspan x="0" y="0" class="st6 st1 st8">50+</tspan>
  <tspan x="30.7" y="0" class="st6 st7 st8">Employees</tspan>
</text>
<text transform="translate(118.262 906.494)">
  <tspan x="0" y="0" class="st6 st1 st9">We continue to grow with reliability</tspan>
  <tspan x="0" y="14.4" class="st6 st1 st9">and professionalism in the Events</tspan>
  <tspan x="0" y="28.8" class="st6 st1 st9">Industry</tspan>
</text>
<path class="st0" d="M100.4 11.2l2.7 8.2c0 .1.1.2.2.2h8.6c.2 0 .3.3.1.4l-7 5.1c-.1.1-.1.2-.1.3l2.7 8.2c.1.2-.2.4-.4.3l-7-5.1c-.1-.1-.2-.1-.3 0l-7 5.1c-.2.1-.5 0-.4-.3l2.7-8.2c0-.1 0-.2-.1-.3l-7-5.1c-.2-.1-.1-.4.1-.4h8.6c.1 0 .2-.1.2-.2l2.7-8.2c.3-.3.7-.3.7 0z"/>
<path class="st10" d="M100.2 28.6v59.5"/>
<text transform="translate(137.212 114.281)">
  <tspan x="0" y="0" class="st6 st1 st8">4</tspan>
  <tspan x="11.4" y="0" class="st6 st7 st8">People Joined</tspan>
</text>
<circle class="st11" cx="85.5" cy="96.9" r="3.4"/>
<path class="st11" d="M91.6 115.2v-9.5c0-2.1-1.7-3.7-3.7-3.7h-4.8c-2.1 0-3.7 1.7-3.7 3.7v9.5"/>
<circle class="st11" cx="100.2" cy="96.9" r="3.4"/>
<path class="st11" d="M106.3 115.2v-9.5c0-2.1-1.7-3.7-3.7-3.7h-4.8c-2.1 0-3.7 1.7-3.7 3.7v9.5"/>
<circle class="st11" cx="114.8" cy="96.9" r="3.4"/>
<path class="st11" d="M120.9 115.2v-9.5c0-2.1-1.7-3.7-3.7-3.7h-4.8c-2.1 0-3.7 1.7-3.7 3.7v9.5"/>
<path class="st12" d="M100.2 117.8V171M100.2 203.8V257M100.2 283.9v53.2M100.2 366.4v53.2"/>
<circle class="st3" cx="85.6" cy="180.4" r="3.4"/>
<path class="st3" d="M91.7 198.6v-9.5c0-2.1-1.7-3.7-3.7-3.7h-4.8c-2.1 0-3.7 1.7-3.7 3.7v9.5"/>
<circle class="st3" cx="100.2" cy="180.4" r="3.4"/>
<path class="st3" d="M106.3 198.6v-9.5c0-2.1-1.7-3.7-3.7-3.7h-4.8c-2.1 0-3.7 1.7-3.7 3.7v9.5"/>
<circle class="st3" cx="114.8" cy="180.4" r="3.4"/>
<path class="st3" d="M121 198.6v-9.5c0-2.1-1.7-3.7-3.7-3.7h-4.8c-2.1 0-3.7 1.7-3.7 3.7v9.5"/>
<circle class="st4" cx="85.6" cy="508.8" r="3.4"/>
<path class="st4" d="M91.7 527.1v-9.5c0-2.1-1.7-3.7-3.7-3.7h-4.8c-2.1 0-3.7 1.7-3.7 3.7v9.5"/>
<circle class="st4" cx="100.2" cy="508.8" r="3.4"/>
<path class="st4" d="M106.3 527.1v-9.5c0-2.1-1.7-3.7-3.7-3.7h-4.8c-2.1 0-3.7 1.7-3.7 3.7v9.5"/>
<circle class="st4" cx="114.8" cy="508.8" r="3.4"/>
<path class="st4" d="M121 527.1v-9.5c0-2.1-1.7-3.7-3.7-3.7h-4.8c-2.1 0-3.7 1.7-3.7 3.7v9.5"/>
<circle class="st4" cx="85.6" cy="680.3" r="3.4"/>
<path class="st4" d="M91.7 698.6v-9.5c0-2.1-1.7-3.7-3.7-3.7h-4.8c-2.1 0-3.7 1.7-3.7 3.7v9.5"/>
<circle class="st4" cx="100.2" cy="680.3" r="3.4"/>
<path class="st4" d="M106.3 698.6v-9.5c0-2.1-1.7-3.7-3.7-3.7h-4.8c-2.1 0-3.7 1.7-3.7 3.7v9.5"/>
<circle class="st4" cx="114.8" cy="680.3" r="3.4"/>
<path class="st4" d="M121 698.6v-9.5c0-2.1-1.7-3.7-3.7-3.7h-4.8c-2.1 0-3.7 1.7-3.7 3.7v9.5"/>
<path class="st3" d="M115.5 256.8l-.2-.5-35.9 11.8.2.5c.3-.1.5.1.6.3.1.3-.1.5-.3.6l.3.8c.3-.1.5.1.6.3.1.3-.1.5-.3.6l.3.8c.3-.1.5.1.6.3s-.1.5-.3.6l.3.8c1.6-.5 3.3.3 3.9 1.9s-.3 3.3-1.9 3.9l.3.8c.3-.1.5.1.6.3.1.2-.1.5-.3.6l.3.8c.3-.1.5.1.6.3.1.2-.1.5-.3.6l.3.8c.3-.1.5.1.6.3.1.2-.1.5-.3.6l.2.5 35.9-11.8-.2-.5c-.3.1-.5-.1-.6-.3-.1-.3.1-.5.3-.6l-.3-.8c-.3.1-.5-.1-.6-.3-.1-.3.1-.5.3-.6l-.3-.8c-.3.1-.5-.1-.6-.3-.1-.3.1-.5.3-.6l-.3-.8c-1.6.5-3.3-.3-3.9-1.9-.5-1.6.3-3.3 1.9-3.9l-.3-.8c-.3.1-.5-.1-.6-.3-.1-.3.1-.5.3-.6l-.3-.8c-.3.1-.5-.1-.6-.3s.1-.5.3-.6l-.3-.8c-.3.1-.5-.1-.6-.3-.1-.2 0-.5.3-.6z"/>
<path class="st13" d="M100.2 447.3v53.2"/>
<path class="st4" d="M115.5 421.1l-.2-.5-35.9 11.8.2.5c.3-.1.5.1.6.3.1.3-.1.5-.3.6l.3.8c.3-.1.5.1.6.3.1.3-.1.5-.3.6l.3.8c.3-.1.5.1.6.3s-.1.5-.3.6l.3.8c1.6-.5 3.3.3 3.9 1.9.5 1.6-.3 3.3-1.9 3.9l.3.8c.3-.1.5.1.6.3.1.2-.1.5-.3.6l.3.8c.3-.1.5.1.6.3.1.2-.1.5-.3.6l.3.8c.3-.1.5.1.6.3.1.2-.1.5-.3.6l.2.5 35.9-11.8-.2-.5c-.3.1-.5-.1-.6-.3-.1-.3.1-.5.3-.6l-.3-.8c-.3.1-.5-.1-.6-.3-.1-.3.1-.5.3-.6l-.3-.8c-.3.1-.5-.1-.6-.3-.1-.3.1-.5.3-.6l-.3-.8c-1.6.5-3.3-.3-3.9-1.9-.5-1.6.3-3.3 1.9-3.9l-.3-.8c-.3.1-.5-.1-.6-.3-.1-.3.1-.5.3-.6l-.3-.8c-.3.1-.5-.1-.6-.3s.1-.5.3-.6l-.3-.8c-.3.1-.5-.1-.6-.3-.1-.3 0-.5.3-.6z"/>
<circle class="st5" cx="85.6" cy="848.1" r="3.4"/>
<path class="st5" d="M91.7 866.4v-9.5c0-2.1-1.7-3.7-3.7-3.7h-4.8c-2.1 0-3.7 1.7-3.7 3.7v9.5"/>
<circle class="st5" cx="100.2" cy="848.1" r="3.4"/>
<path class="st5" d="M106.3 866.4v-9.5c0-2.1-1.7-3.7-3.7-3.7h-4.8c-2.1 0-3.7 1.7-3.7 3.7v9.5"/>
<circle class="st5" cx="114.8" cy="848.1" r="3.4"/>
<path class="st5" d="M121 866.4v-9.5c0-2.1-1.7-3.7-3.7-3.7h-4.8c-2.1 0-3.7 1.7-3.7 3.7v9.5"/>
<path class="st14" d="M100.2 785.7v53.2"/>
<path class="st5" d="M115.5 757.3l-.2-.5-35.9 11.8.2.5c.3-.1.5.1.6.3.1.3-.1.5-.3.6l.3.8c.3-.1.5.1.6.3s-.1.5-.3.6l.3.8c.3-.1.5.1.6.3s-.1.5-.3.6l.3.8c1.6-.5 3.3.3 3.9 1.9s-.3 3.3-1.9 3.9l.3.8c.3-.1.5.1.6.3.1.2-.1.5-.3.6l.3.8c.3-.1.5.1.6.3.1.2-.1.5-.3.6l.3.8c.3-.1.5.1.6.3.1.2-.1.5-.3.6l.2.5 35.9-11.8-.2-.5c-.3.1-.5-.1-.6-.3-.1-.3.1-.5.3-.6l-.3-.8c-.3.1-.5-.1-.6-.3-.1-.3.1-.5.3-.6l-.3-.8c-.3.1-.5-.1-.6-.3-.1-.3.1-.5.3-.6l-.3-.8c-1.6.5-3.3-.3-3.9-1.9-.5-1.6.3-3.3 1.9-3.9l-.3-.8c-.3.1-.5-.1-.6-.3-.1-.3.1-.5.3-.6l-.3-.8c-.3.1-.5-.1-.6-.3s.1-.5.3-.6l-.3-.8c-.3.1-.5-.1-.6-.3-.1-.2 0-.5.3-.6z"/>
<circle class="st3" cx="100.2" cy="351.7" r="10"/>
<path class="st13" d="M100.2 532.8V586M100.2 617.8V671M100.2 704.8V758"/>
<circle class="st4" cx="100.2" cy="600.8" r="10"/>
<path class="st15" d="M100.2 870.8v59.5"/>
<path class="st16" d="M93.8 930l6 11 6.8-11z"/>
</svg>