<svg id="Layer_1" data-name="Layer 1" xmlns="http://www.w3.org/2000/svg" viewBox="0 0 133.42 41.27"><defs><style>.cls-1{fill:#ffe539;}</style></defs><title>Me-logo-140x80</title><polygon class="cls-1" points="40.11 29.22 40.11 21.57 38.79 21.57 38.79 20.02 43.75 20.02 45.94 28.16 48.24 20.02 53.19 20.02 53.19 21.57 51.81 21.57 51.81 29.22 53.19 29.22 53.19 30.81 48.52 30.81 48.52 29.22 49.74 29.22 49.74 21.57 46.98 30.81 44.69 30.81 41.98 21.57 41.98 29.22 43.12 29.22 43.12 30.81 38.79 30.81 38.79 29.22 40.11 29.22"/><path class="cls-1" d="M64.09,49.08h2A3.09,3.09,0,0,1,65,51a4,4,0,0,1-6.46-3.39,4.1,4.1,0,0,1,1-3,4.34,4.34,0,0,1,5.67-.06,4,4,0,0,1,1,2.93c0,0.08,0,.16,0,0.26s0,0.24,0,.42H60.72a2,2,0,0,0,.45,1.39,1.66,1.66,0,0,0,1.29.49,1.85,1.85,0,0,0,1-.26,1.64,1.64,0,0,0,.62-0.78m-3.35-2.24h3.32V46.67a1.46,1.46,0,0,0-.46-1.12,1.68,1.68,0,0,0-1.19-.43,1.61,1.61,0,0,0-1.21.47,1.71,1.71,0,0,0-.46,1.25" transform="translate(-4.22 -20.67)"/><path class="cls-1" d="M68.45,49.94V45.28h-1V43.8h3.21v1.39a3.34,3.34,0,0,1,1-1.24,2.35,2.35,0,0,1,1.35-.4l0.39,0,0.5,0.08v1.82l-0.43-.06-0.44,0a2.22,2.22,0,0,0-1.82.7,3.45,3.45,0,0,0-.58,2.21v1.62h1.09v1.53H67.36V49.94h1.09Z" transform="translate(-4.22 -20.67)"/><path class="cls-1" d="M82.72,51.47h-3v-1a3,3,0,0,1-1.08.94,3.23,3.23,0,0,1-1.45.31,2.82,2.82,0,0,1-2-.68,2.52,2.52,0,0,1,.1-3.69,3.8,3.8,0,0,1,2.41-.67h2V46a0.84,0.84,0,0,0-.41-0.71A1.87,1.87,0,0,0,78.23,45a1.51,1.51,0,0,0-1,.29,1.11,1.11,0,0,0-.39.82h-2a2.54,2.54,0,0,1,.9-2,4.09,4.09,0,0,1,2.47-.61,4.53,4.53,0,0,1,2.72.64,2.44,2.44,0,0,1,.85,2.07v3.64h1v1.53Zm-3-3.42L79.2,48H78.74a3.38,3.38,0,0,0-1.51.27,0.85,0.85,0,0,0-.51.79,1,1,0,0,0,.3.77,1.23,1.23,0,0,0,.85.27,1.68,1.68,0,0,0,1.31-.54,2.35,2.35,0,0,0,.54-1.51" transform="translate(-4.22 -20.67)"/><polygon class="cls-1" points="79.97 30.81 79.97 29.2 81.37 29.2 81.37 21.56 79.97 21.56 79.97 20.02 89.58 20.02 89.58 23.21 87.76 23.21 87.76 21.56 83.67 21.56 83.67 24.55 85.17 24.55 85.17 23.08 86.87 23.08 86.87 27.45 85.17 27.45 85.17 26.03 83.67 26.03 83.67 29.2 87.73 29.2 87.73 27.26 89.58 27.26 89.58 30.81 79.97 30.81"/><polygon class="cls-1" points="90.53 24.61 90.53 23.13 94.8 23.13 94.8 24.61 93.71 24.61 95.33 29.06 97.01 24.61 95.92 24.61 95.92 23.13 99.91 23.13 99.91 24.61 99.12 24.61 96.52 30.81 93.91 30.81 91.4 24.61 90.53 24.61"/><path class="cls-1" d="M110.54,49.08h2a3.09,3.09,0,0,1-1.16,2A4,4,0,0,1,105,47.64a4.1,4.1,0,0,1,1-3,4.34,4.34,0,0,1,5.67-.06,4,4,0,0,1,1,2.93c0,0.08,0,.16,0,0.26s0,0.24,0,.42h-5.47a2,2,0,0,0,.45,1.39,1.66,1.66,0,0,0,1.29.49,1.85,1.85,0,0,0,1-.26,1.64,1.64,0,0,0,.62-0.78m-3.36-2.24h3.32V46.67a1.45,1.45,0,0,0-.46-1.12,1.68,1.68,0,0,0-1.19-.43,1.62,1.62,0,0,0-1.21.47,1.71,1.71,0,0,0-.46,1.25" transform="translate(-4.22 -20.67)"/><path class="cls-1" d="M113.87,51.47V49.94h1V45.28h-1V43.8H117V45a3.4,3.4,0,0,1,1.18-1.08,3.34,3.34,0,0,1,1.56-.34,2.58,2.58,0,0,1,2,.71,3.25,3.25,0,0,1,.64,2.23v3.4h1v1.53h-4.37V49.94h1.17v-3.4a1.37,1.37,0,0,0-.35-1,1.27,1.27,0,0,0-1-.36,1.76,1.76,0,0,0-1.35.55,2,2,0,0,0-.52,1.45v2.76h1.17v1.53h-4.38Z" transform="translate(-4.22 -20.67)"/><path class="cls-1" d="M129.45,45.31h-2v4.08a0.89,0.89,0,0,0,.13.54,0.47,0.47,0,0,0,.4.17,0.58,0.58,0,0,0,.51-0.24,1.28,1.28,0,0,0,.17-0.73V48.92H130l0,0.3c0,0.07,0,.13,0,0.18a2.23,2.23,0,0,1-.62,1.69,2.45,2.45,0,0,1-1.76.59,2.72,2.72,0,0,1-1.81-.5,2,2,0,0,1-.57-1.55V45.31H124V43.8h1.23V42.27l2.18-.79V43.8h2v1.52Z" transform="translate(-4.22 -20.67)"/><path class="cls-1" d="M132.61,51.52H131V48.75h1.63a1.92,1.92,0,0,0,.61,1,1.64,1.64,0,0,0,1.06.33,1.33,1.33,0,0,0,.79-0.21,0.64,0.64,0,0,0,.3-0.54q0-.55-1.81-1l-0.23-.06a4.06,4.06,0,0,1-1.92-.84,2.46,2.46,0,0,1,.28-3.22,3.07,3.07,0,0,1,2-.63,2.74,2.74,0,0,1,1.19.24,2.25,2.25,0,0,1,.86.73V43.8h1.56v2.48h-1.56a1.36,1.36,0,0,0-.51-0.9A1.68,1.68,0,0,0,134.2,45a1.22,1.22,0,0,0-.73.2,0.62,0.62,0,0,0-.27.52q0,0.6,1.92,1l0.38,0.08a3,3,0,0,1,1.64.79,2.18,2.18,0,0,1,.5,1.53,2.29,2.29,0,0,1-.75,1.79,2.89,2.89,0,0,1-2,.67,3,3,0,0,1-1.34-.28,2.33,2.33,0,0,1-.92-0.83v1Z" transform="translate(-4.22 -20.67)"/><polygon class="cls-1" points="40.12 29.22 40.12 21.57 38.8 21.57 38.8 20.02 43.76 20.02 45.95 28.16 48.25 20.02 53.2 20.02 53.2 21.57 51.82 21.57 51.82 29.22 53.2 29.22 53.2 30.81 48.53 30.81 48.53 29.22 49.75 29.22 49.75 21.57 46.99 30.81 44.7 30.81 41.99 21.57 41.99 29.22 43.13 29.22 43.13 30.81 38.8 30.81 38.8 29.22 40.12 29.22"/><path class="cls-1" d="M64.1,49.08h2A3.09,3.09,0,0,1,65,51a4,4,0,0,1-6.46-3.39,4.09,4.09,0,0,1,1-3,4.34,4.34,0,0,1,5.67-.06,4,4,0,0,1,1,2.93c0,0.08,0,.16,0,0.26s0,0.24,0,.42H60.73a2,2,0,0,0,.45,1.39,1.66,1.66,0,0,0,1.29.49,1.85,1.85,0,0,0,1-.26,1.63,1.63,0,0,0,.62-0.78m-3.35-2.24h3.32V46.67a1.46,1.46,0,0,0-.46-1.12,1.68,1.68,0,0,0-1.19-.43,1.61,1.61,0,0,0-1.21.47,1.7,1.7,0,0,0-.46,1.25" transform="translate(-4.22 -20.67)"/><path class="cls-1" d="M68.46,49.94V45.28h-1V43.8h3.21v1.39a3.35,3.35,0,0,1,1-1.24,2.35,2.35,0,0,1,1.35-.4l0.39,0,0.5,0.08v1.82l-0.43-.06-0.44,0a2.22,2.22,0,0,0-1.81.7,3.45,3.45,0,0,0-.58,2.21v1.62h1.09v1.53H67.37V49.94h1.09Z" transform="translate(-4.22 -20.67)"/><path class="cls-1" d="M82.73,51.47h-3v-1a3,3,0,0,1-1.08.94,3.22,3.22,0,0,1-1.45.31,2.82,2.82,0,0,1-2-.68,2.52,2.52,0,0,1,.1-3.69,3.8,3.8,0,0,1,2.41-.67h2V46a0.84,0.84,0,0,0-.41-0.71A1.87,1.87,0,0,0,78.24,45a1.51,1.51,0,0,0-1,.29,1.11,1.11,0,0,0-.39.82h-2a2.54,2.54,0,0,1,.9-2,4.08,4.08,0,0,1,2.47-.61,4.54,4.54,0,0,1,2.72.64,2.44,2.44,0,0,1,.85,2.07v3.64h1v1.53Zm-3-3.42-0.51,0H78.75a3.38,3.38,0,0,0-1.51.27,0.85,0.85,0,0,0-.51.79,1,1,0,0,0,.3.77,1.23,1.23,0,0,0,.86.27,1.68,1.68,0,0,0,1.31-.54,2.35,2.35,0,0,0,.54-1.51" transform="translate(-4.22 -20.67)"/><polygon class="cls-1" points="79.97 30.81 79.97 29.2 81.38 29.2 81.38 21.56 79.97 21.56 79.97 20.02 89.59 20.02 89.59 23.21 87.77 23.21 87.77 21.56 83.68 21.56 83.68 24.55 85.18 24.55 85.18 23.08 86.88 23.08 86.88 27.45 85.18 27.45 85.18 26.03 83.68 26.03 83.68 29.2 87.74 29.2 87.74 27.26 89.59 27.26 89.59 30.81 79.97 30.81"/><polygon class="cls-1" points="90.54 24.61 90.54 23.13 94.81 23.13 94.81 24.61 93.72 24.61 95.33 29.06 97.02 24.61 95.93 24.61 95.93 23.13 99.92 23.13 99.92 24.61 99.13 24.61 96.53 30.81 93.92 30.81 91.41 24.61 90.54 24.61"/><path class="cls-1" d="M110.55,49.08h2a3.09,3.09,0,0,1-1.16,2A4,4,0,0,1,105,47.64a4.1,4.1,0,0,1,1-3,4.34,4.34,0,0,1,5.67-.06,4,4,0,0,1,1,2.93c0,0.08,0,.16,0,0.26l0,0.42h-5.47a2,2,0,0,0,.45,1.39,1.66,1.66,0,0,0,1.29.49,1.85,1.85,0,0,0,1-.26,1.64,1.64,0,0,0,.62-0.78m-3.36-2.24h3.32V46.67a1.45,1.45,0,0,0-.46-1.12,1.68,1.68,0,0,0-1.19-.43,1.61,1.61,0,0,0-1.21.47,1.7,1.7,0,0,0-.46,1.25" transform="translate(-4.22 -20.67)"/><path class="cls-1" d="M113.88,51.47V49.94h1V45.28h-1V43.8H117V45a3.39,3.39,0,0,1,1.18-1.08,3.33,3.33,0,0,1,1.56-.34,2.58,2.58,0,0,1,2,.71,3.25,3.25,0,0,1,.64,2.23v3.4h1v1.53h-4.37V49.94h1.17v-3.4a1.36,1.36,0,0,0-.35-1,1.26,1.26,0,0,0-1-.36,1.75,1.75,0,0,0-1.35.55,2,2,0,0,0-.52,1.45v2.76h1.17v1.53h-4.38Z" transform="translate(-4.22 -20.67)"/><path class="cls-1" d="M129.46,45.31h-2v4.08a0.89,0.89,0,0,0,.13.54,0.47,0.47,0,0,0,.4.17,0.58,0.58,0,0,0,.51-0.24,1.28,1.28,0,0,0,.17-0.73V48.92H130l0,0.3c0,0.07,0,.13,0,0.18a2.23,2.23,0,0,1-.62,1.69,2.46,2.46,0,0,1-1.76.59,2.73,2.73,0,0,1-1.81-.5,2,2,0,0,1-.57-1.55V45.31H124V43.8h1.23V42.27l2.18-.79V43.8h2v1.52Z" transform="translate(-4.22 -20.67)"/><path class="cls-1" d="M132.62,51.52H131V48.75h1.63a1.93,1.93,0,0,0,.61,1,1.64,1.64,0,0,0,1.06.33,1.33,1.33,0,0,0,.79-0.21,0.64,0.64,0,0,0,.3-0.54q0-.55-1.81-1l-0.23-.06a4.07,4.07,0,0,1-1.92-.84,2.46,2.46,0,0,1,.28-3.22,3.07,3.07,0,0,1,2-.63,2.74,2.74,0,0,1,1.19.24,2.25,2.25,0,0,1,.86.73V43.8h1.57v2.48h-1.57a1.35,1.35,0,0,0-.51-0.9,1.68,1.68,0,0,0-1.06-.33,1.21,1.21,0,0,0-.73.2,0.62,0.62,0,0,0-.27.52q0,0.6,1.92,1l0.38,0.08a3,3,0,0,1,1.64.79,2.18,2.18,0,0,1,.5,1.53A2.29,2.29,0,0,1,136.9,51a2.9,2.9,0,0,1-2,.67,3,3,0,0,1-1.34-.28,2.33,2.33,0,0,1-.92-0.83v1Z" transform="translate(-4.22 -20.67)"/><path class="cls-1" d="M28.43,31V31.6l8.07-6.11a24.35,24.35,0,0,0,2.84,3.66L40,29.36a52.86,52.86,0,0,1-3.63-6.05Z" transform="translate(-4.22 -20.67)"/><path class="cls-1" d="M40.85,25.12A18.34,18.34,0,0,0,38,21.69c-1-.92-1.82-1.22-2.31-0.9L22.3,34.86V35c0.07,0.83.83,2.29,1.62,2.47H24l3.23-.78h0l0.12,0a4.65,4.65,0,0,0,1.38,1.6,14.4,14.4,0,0,1,2.8.49l0.4-.73a3.24,3.24,0,0,0,.4-1.58V35.18l9.57-3.24,0.23-.07a1.65,1.65,0,0,0,1-.65l0-.06c0.35-1-.59-3.47-2.3-6m1.76,5.82a1.19,1.19,0,0,1-.66.37L32,34.66l-1.81-.95-0.06,0a1,1,0,0,0-.88.14l-1.09.64-0.14.13a0.85,0.85,0,0,0-.12.7l0.15,0.53a0.34,0.34,0,0,1-.16.08l-3.94,1a3,3,0,0,1-1.1-1.81L36,21.26c0.16-.07.66,0,1.59,0.86a17.71,17.71,0,0,1,2.77,3.32c1.71,2.58,2.48,4.83,2.24,5.51" transform="translate(-4.22 -20.67)"/><path class="cls-1" d="M31.66,40.83l0.17-1.29a12.08,12.08,0,0,0-3.4-.61l-0.24,1.25-0.55,0L26.33,45.3a0.28,0.28,0,0,0,0,.18,16.87,16.87,0,0,1-3.57-.29A14.82,14.82,0,0,0,21,43a0.57,0.57,0,0,1-.66.14,1.81,1.81,0,0,1-.59,1,1.39,1.39,0,0,1-1.17-.77l-0.07-.09h0a3.37,3.37,0,0,1-.68-1.51,0.4,0.4,0,0,1,.43-0.51,3.32,3.32,0,0,1,1.21.37l-0.37-1a7.12,7.12,0,0,1-2-.46l-0.15-.58a6.62,6.62,0,0,0,3.52.27,0.61,0.61,0,0,0,.44-0.39,1.31,1.31,0,0,0,0-.59,1.05,1.05,0,0,1,0-.32c0-.11-0.06-0.19-0.24-0.21A1.67,1.67,0,0,1,19,37.41a1.6,1.6,0,0,1,.05-1,2.44,2.44,0,0,1-2.57.05L16.24,36a2.82,2.82,0,0,0,1,0,3.11,3.11,0,0,0,1.06-.45l0.32-.23,0,0L19.08,35l0.62-.38,0.39-.28A0.26,0.26,0,0,0,20,33.86l-2-1a0.64,0.64,0,0,1-.42-0.56V32.21a0.79,0.79,0,0,0-.42-0.65l-0.47-.26,0.46-.85h0c0.74-1.37.7-1.88,0.61-2.13A0.47,0.47,0,0,0,17.52,28c-0.91-.38-2.23,1.21-3.12,1.57-1.28-.62-2.65-2.28-3.82-3.78a0.67,0.67,0,0,0-.9-0.14c-2,1.39-4.44,4.88-5.4,7.28a0.67,0.67,0,0,0,.42.89,13.61,13.61,0,0,1,3.67,2.07c-0.48.9-1.61,3.2-1,3.68C7.57,39.71,8.2,40,10.18,38l0.36-.39-0.4-.39C9.4,37.86,8,39.14,7.81,39S8.41,36.93,9,36l0-.35A13.71,13.71,0,0,0,4.86,33.3a0.09,0.09,0,0,1-.06,0,0.1,0.1,0,0,1,0-.08c0.92-2.27,3.27-5.72,5.2-7a0.1,0.1,0,0,1,.13,0c0.45,0.58,2.39,3.25,4.17,4h0.25c1.06-.45,2.28-1.85,2.64-1.63,0.15,0.09,0,.79-0.8,2.14-0.12.2-.4,0.61-0.44,0.68a38.45,38.45,0,0,1-2.9,3.22L14,35.47a1.07,1.07,0,0,0,.93.38L15,36.31l-0.85.51-0.83-.5a0.65,0.65,0,0,0-.73,0,0.56,0.56,0,0,0,.05.82l1.13,1.18A1.09,1.09,0,0,1,13.17,40a0.8,0.8,0,0,1-.52,0,1.46,1.46,0,0,1-.36-0.15l-0.06.28,0.13,1.06a1,1,0,0,0,0,.12A5.35,5.35,0,0,1,12,44l-0.06.16a9.39,9.39,0,0,0-.76,3.17A7.67,7.67,0,0,0,12,50.63l0.36,0.91,0.14,0.36c0.47,1.21,1.81,3.83,1.93,4.86a3.77,3.77,0,0,1-1.2,2.85l0.17,0.65a4.44,4.44,0,0,0,1.6-3.57c-0.13-1.1-1.45-3.65-2-5l-0.14-.36-0.36-.92a7.16,7.16,0,0,1-.77-3.05,8.93,8.93,0,0,1,.73-3l0.06-.17A4.76,4.76,0,0,0,13,41.27c0.37,0.18,3,1.51,5.39,3l0.22,0.13c3.16,1.93,7.68,1.69,8.4,1.64,0.73,0.66,1.57,1.56,1.58,1.57l0.22-.21a14.27,14.27,0,0,0-1.85-2.16l1.3-5a13.46,13.46,0,0,1,3.37.67c-0.08.62-.21,1.87-0.33,2.77-0.2,1.56-.46,3.57-0.67,5.27l-0.09.5-0.07.4a10.07,10.07,0,0,1-2.74.84,24,24,0,0,1-3.33.26,25.41,25.41,0,0,1-5.58-.55l0.15,0.41a10.82,10.82,0,0,0,3.55.82c0.08,1,.48,5.25.54,6.12a3.33,3.33,0,0,1-.59,2.39,2.86,2.86,0,0,1-2.85.67,8.26,8.26,0,0,0-2.93-.38,5.79,5.79,0,0,0-2.65.77,3.49,3.49,0,0,0-.37.2l0.13,0.53A6.42,6.42,0,0,1,16.68,61a7.7,7.7,0,0,1,2.75.36,3.46,3.46,0,0,0,3.44-.85A3.84,3.84,0,0,0,23.6,58a3.14,3.14,0,0,0,1.46-1.15,50.59,50.59,0,0,0-.39-5.3h0a27.46,27.46,0,0,0,3.08-.26s3-.58,3.2-1.24l0.08-.46,0.1-.53c0.21-1.71.47-3.72,0.67-5.27,0.27-2.1.31-2.63,0.31-2.63l-0.49-.29m-16-6.56,1.43-1.55,0.27,0.37L17.31,34l-1.43.39Z" transform="translate(-4.22 -20.67)"/></svg>